# Blender v2.90.0 OBJ File: ''
# www.blender.org
o ampoule
v 0.000000 0.000000 0.000000
v 0.000000 0.000000 -0.900000
v 0.000000 0.100000 -1.000000
v 0.380000 0.100000 -0.920000
v 0.340000 0.000000 -0.830000
v 0.710000 0.100000 -0.710000
v 0.639999 0.000000 -0.640000
v 0.920000 0.100000 -0.380000
v 0.830000 0.000000 -0.340000
v 1.000000 0.100000 0.000000
v 0.900000 0.000000 0.000000
v 0.920000 0.100000 0.380000
v 0.830000 0.000000 0.340000
v 0.710000 0.100000 0.710000
v 0.639999 0.000000 0.640000
v 0.380000 0.100000 0.920000
v 0.340000 0.000000 0.830000
v 0.000000 0.100000 1.000000
v 0.000000 0.000000 0.900000
v -0.380000 0.100000 0.920000
v -0.340000 0.000000 0.830000
v -0.710000 0.100000 0.710000
v -0.640000 0.000000 0.640000
v -0.920000 0.100000 0.380000
v -0.830000 0.000000 0.340000
v -1.000000 0.100000 0.000000
v -0.900001 0.000000 0.000000
v -0.920000 0.100000 -0.380000
v -0.830000 0.000000 -0.340000
v -0.710000 0.100000 -0.710000
v -0.640000 0.000000 -0.640000
v -0.380000 0.100000 -0.920000
v -0.340000 0.000000 -0.830000
v 0.000000 4.500000 -0.500000
v 0.190000 4.500000 -0.460000
v 0.349999 4.500000 -0.350000
v 0.460000 4.500000 -0.190000
v 0.500000 4.500000 0.000000
v 0.460000 4.500000 0.190000
v 0.349999 4.500000 0.350000
v 0.190000 4.500000 0.460000
v 0.000000 4.500000 0.500000
v -0.190001 4.500000 0.460000
v -0.350000 4.500000 0.350000
v -0.460000 4.500000 0.190000
v -0.500000 4.500000 0.000000
v -0.460000 4.500000 -0.190000
v -0.350000 4.500000 -0.350000
v -0.190001 4.500000 -0.460000
v 0.000000 3.400000 -1.000000
v 0.000000 3.570000 -0.930000
v 0.360000 3.570000 -0.860000
v 0.380000 3.400000 -0.920000
v 0.660000 3.570000 -0.660000
v 0.710000 3.400000 -0.710000
v 0.860000 3.570000 -0.360000
v 0.920000 3.400000 -0.380000
v 0.929999 3.570000 0.000000
v 1.000000 3.400000 0.000000
v 0.860000 3.570000 0.360000
v 0.920000 3.400000 0.380000
v 0.660000 3.570000 0.660000
v 0.710000 3.400000 0.710000
v 0.360000 3.570000 0.860000
v 0.380000 3.400000 0.920000
v 0.000000 3.570000 0.930000
v 0.000000 3.400000 1.000000
v -0.360001 3.570000 0.860000
v -0.380000 3.400000 0.920000
v -0.660000 3.570000 0.660000
v -0.710000 3.400000 0.710000
v -0.860001 3.570000 0.360000
v -0.920000 3.400000 0.380000
v -0.930000 3.570000 0.000000
v -1.000000 3.400000 0.000000
v -0.860001 3.570000 -0.360000
v -0.920000 3.400000 -0.380000
v -0.660000 3.570000 -0.660000
v -0.710000 3.400000 -0.710000
v -0.360001 3.570000 -0.860000
v -0.380000 3.400000 -0.920000
v 0.000000 3.930000 -0.570000
v 0.000000 4.100000 -0.500000
v 0.190000 4.100000 -0.460000
v 0.219999 3.930000 -0.530000
v 0.349999 4.100000 -0.350000
v 0.400000 3.930000 -0.400000
v 0.460000 4.100000 -0.190000
v 0.530000 3.930000 -0.220000
v 0.500000 4.100000 0.000000
v 0.570000 3.930000 0.000000
v 0.460000 4.100000 0.190000
v 0.530000 3.930000 0.220000
v 0.349999 4.100000 0.350000
v 0.400000 3.930000 0.400000
v 0.190000 4.100000 0.460000
v 0.219999 3.930000 0.530000
v 0.000000 4.100000 0.500000
v 0.000000 3.930000 0.570000
v -0.190001 4.100000 0.460000
v -0.220000 3.930000 0.530000
v -0.350000 4.100000 0.350000
v -0.400001 3.930000 0.400000
v -0.460000 4.100000 0.190000
v -0.530001 3.930000 0.220000
v -0.500000 4.100000 0.000000
v -0.570001 3.930000 0.000000
v -0.460000 4.100000 -0.190000
v -0.530001 3.930000 -0.220000
v -0.350000 4.100000 -0.350000
v -0.400001 3.930000 -0.400000
v -0.190001 4.100000 -0.460000
v -0.220000 3.930000 -0.530000
v 0.000000 4.500000 0.000000
v 0.000000 4.500000 -0.750000
v 0.290000 4.500000 -0.690000
v 0.530000 4.500000 -0.530000
v 0.690000 4.500000 -0.290000
v 0.750000 4.500000 0.000000
v 0.690000 4.500000 0.290000
v 0.530000 4.500000 0.530000
v 0.290000 4.500000 0.690000
v 0.000000 4.500000 0.750000
v -0.290000 4.500000 0.690000
v -0.530001 4.500000 0.530000
v -0.690001 4.500000 0.290000
v -0.750000 4.500000 0.000000
v -0.690001 4.500000 -0.290000
v -0.530001 4.500000 -0.530000
v -0.290000 4.500000 -0.690000
v 0.000000 5.000000 -0.750000
v 0.290000 5.000000 -0.690000
v 0.530000 5.000000 -0.530000
v 0.690000 5.000000 -0.290000
v 0.750000 5.000000 0.000000
v 0.690000 5.000000 0.290000
v 0.530000 5.000000 0.530000
v 0.290000 5.000000 0.690000
v 0.000000 5.000000 0.750000
v -0.290000 5.000000 0.690000
v -0.530001 5.000000 0.530000
v -0.690001 5.000000 0.290000
v -0.750000 5.000000 0.000000
v -0.690001 5.000000 -0.290000
v -0.530001 5.000000 -0.530000
v -0.290000 5.000000 -0.690000
v -0.000000 5.000000 0.000000
vt 0.546875 0.878906
vt 0.498047 0.976562
vt 0.505859 0.878906
vt 0.462891 0.976562
vt 0.464844 0.876953
vt 0.138672 0.119141
vt 0.041016 0.183594
vt 0.025391 0.140625
vt 0.429688 0.976562
vt 0.423828 0.878906
vt 0.025391 0.095703
vt 0.394531 0.976562
vt 0.382812 0.878906
vt 0.042969 0.054688
vt 0.361328 0.976562
vt 0.341797 0.880859
vt 0.074219 0.021484
vt 0.326172 0.976562
vt 0.302734 0.882812
vt 0.117188 0.005859
vt 0.294922 0.976562
vt 0.261719 0.888672
vt 0.162109 0.005859
vt 0.261719 0.976562
vt 0.220703 0.896484
vt 0.203125 0.023438
vt 0.230469 0.976562
vt 0.183594 0.912109
vt 0.236328 0.054688
vt 0.199219 0.976562
vt 0.150391 0.935547
vt 0.253906 0.097656
vt 0.783203 0.933594
vt 0.703125 0.976562
vt 0.750000 0.910156
vt 0.736328 0.976562
vt 0.253906 0.142578
vt 0.710938 0.896484
vt 0.669922 0.976562
vt 0.636719 0.976562
vt 0.669922 0.888672
vt 0.236328 0.183594
vt 0.203125 0.216797
vt 0.587891 0.880859
vt 0.568359 0.976562
vt 0.533203 0.976562
vt 0.160156 0.234375
vt 0.115234 0.234375
vt 0.074219 0.216797
vt 0.677734 0.275391
vt 0.625000 0.275391
vt 0.626953 0.253906
vt 0.677734 0.253906
vt 0.572266 0.253906
vt 0.517578 0.275391
vt 0.572266 0.277344
vt 0.466797 0.275391
vt 0.517578 0.253906
vt 0.414062 0.253906
vt 0.466797 0.253906
vt 0.416000 0.275391
vt 0.359375 0.253906
vt 0.318000 0.275391
vt 0.367000 0.277344
vt 0.268000 0.275391
vt 0.304688 0.253906
vt 0.201172 0.253906
vt 0.251953 0.253906
vt 0.217000 0.275391
vt 0.144531 0.253906
vt 0.104000 0.275391
vt 0.162000 0.277344
vt 0.033203 0.273438
vt 0.089844 0.253906
vt 0.892578 0.273438
vt 0.835938 0.253906
vt 0.892578 0.253906
vt 0.835938 0.275391
vt 0.783203 0.253906
vt 0.728516 0.275391
vt 0.783203 0.277344
vt 0.728516 0.253906
vt 0.464844 0.744141
vt 0.507812 0.837891
vt 0.464844 0.835938
vt 0.761719 0.750000
vt 0.681641 0.847656
vt 0.708984 0.748047
vt 0.169922 0.750000
vt 0.158203 0.873047
vt 0.111328 0.757812
vt 0.369141 0.744141
vt 0.335938 0.839844
vt 0.322266 0.744141
vt 0.560547 0.744141
vt 0.511719 0.744141
vt 0.773438 0.871094
vt 0.726562 0.855469
vt 0.248047 0.847656
vt 0.203125 0.855469
vt 0.421875 0.837891
vt 0.378906 0.837891
vt 0.593750 0.839844
vt 0.550781 0.837891
vt 0.892578 0.773438
vt 0.820312 0.757812
vt 0.273438 0.746094
vt 0.222656 0.748047
vt 0.416016 0.744141
vt 0.601562 0.976562
vt 0.628906 0.882812
vt 0.033203 0.773438
vt 0.109375 0.900391
vt 0.656250 0.746094
vt 0.636719 0.841797
vt 0.292969 0.841797
vt 0.611328 0.720703
vt 0.607422 0.744141
vt 0.562500 0.720703
vt 0.513672 0.720703
vt 0.464844 0.720703
vt 0.416000 0.720703
vt 0.367000 0.720703
vt 0.318000 0.720703
vt 0.268000 0.720703
vt 0.217000 0.720703
vt 0.162000 0.720703
vt 0.104000 0.720703
vt 0.033203 0.720703
vt 0.828125 0.720703
vt 0.767578 0.720703
vt 0.712891 0.720703
vt 0.662109 0.720703
vt 0.822266 0.898438
vt 0.892578 0.720703
vt 0.033203 0.253906
vt 0.595703 0.125000
vt 0.488281 0.146484
vt 0.488281 0.103516
vt 0.617188 0.017578
vt 0.656250 0.033203
vt 0.703125 0.146484
vt 0.687500 0.185547
vt 0.576172 0.232422
vt 0.535156 0.216797
vt 0.503906 0.064453
vt 0.687500 0.062500
vt 0.658203 0.214844
vt 0.505859 0.187500
vt 0.535156 0.035156
vt 0.703125 0.103516
vt 0.619141 0.232422
vt 0.574219 0.017578
vt 0.921875 0.603516
vt 0.994141 0.562500
vt 0.994141 0.603516
vt 0.994141 0.691406
vt 0.921875 0.732422
vt 0.921875 0.691406
vt 0.921875 0.562500
vt 0.994141 0.519531
vt 0.994141 0.732422
vt 0.921875 0.775391
vt 0.921875 0.519531
vt 0.994141 0.476562
vt 0.921875 0.818359
vt 0.994141 0.861328
vt 0.921875 0.861328
vt 0.994141 0.775391
vt 0.921875 0.476562
vt 0.994141 0.433594
vt 0.921875 0.904297
vt 0.921875 0.433594
vt 0.994141 0.390625
vt 0.994141 0.904297
vt 0.921875 0.947266
vt 0.921875 0.390625
vt 0.994141 0.347656
vt 0.994141 0.947266
vt 0.921875 0.990234
vt 0.921875 0.347656
vt 0.994141 0.304688
vt 0.921875 0.646484
vt 0.994141 0.646484
vt 0.994141 0.648438
vt 0.921875 0.648438
vt 0.269531 0.103516
vt 0.375000 0.125000
vt 0.269531 0.146484
vt 0.994141 0.818359
vt 0.994141 0.990234
vt 0.921875 0.304688
vt 0.435547 0.212891
vt 0.464844 0.183594
vt 0.353516 0.019531
vt 0.314453 0.037109
vt 0.396484 0.230469
vt 0.396484 0.019531
vt 0.353516 0.230469
vt 0.433594 0.035156
vt 0.316406 0.214844
vt 0.462891 0.064453
vt 0.287109 0.185547
vt 0.480469 0.103516
vt 0.480469 0.146484
vt 0.285156 0.066406
vn 0.6928 0.2003 -0.6928
vn 0.9191 0.0000 -0.3939
vn 0.8993 0.2080 -0.3847
vn 1.0000 0.0000 0.0000
vn 0.9800 0.1991 0.0000
vn 0.0000 -1.0000 0.0000
vn 0.3031 -0.9034 -0.3031
vn 0.3918 -0.9064 -0.1577
vn 0.9191 0.0000 0.3939
vn 0.8993 0.2080 0.3847
vn 0.4233 -0.9060 0.0000
vn 0.7071 0.0000 0.7071
vn 0.6928 0.2003 0.6928
vn 0.3918 -0.9064 0.1577
vn 0.3939 0.0000 0.9191
vn 0.3847 0.2080 0.8993
vn 0.3031 -0.9034 0.3031
vn 0.0000 0.0000 1.0000
vn 0.0000 0.1991 0.9800
vn 0.1577 -0.9064 0.3918
vn -0.3939 0.0000 0.9191
vn -0.3847 0.2080 0.8993
vn 0.0000 -0.9060 0.4233
vn -0.7071 0.0000 0.7071
vn -0.6928 0.2003 0.6928
vn -0.1577 -0.9064 0.3918
vn -0.9191 0.0000 0.3939
vn -0.8993 0.2080 0.3847
vn -0.3031 -0.9034 0.3031
vn -1.0000 0.0000 0.0000
vn -0.9800 0.1991 0.0000
vn -0.3918 -0.9064 0.1577
vn -0.9191 0.0000 -0.3939
vn -0.8993 0.2080 -0.3847
vn -0.4233 -0.9060 0.0000
vn -0.6928 0.2003 -0.6928
vn -0.7071 0.0000 -0.7071
vn -0.3939 0.0000 -0.9191
vn -0.3847 0.2080 -0.8993
vn -0.3918 -0.9064 -0.1577
vn -0.3031 -0.9034 -0.3031
vn 0.3847 0.2080 -0.8993
vn 0.3939 0.0000 -0.9191
vn 0.7071 0.0000 -0.7071
vn -0.1577 -0.9064 -0.3918
vn 0.0000 -0.9060 -0.4233
vn 0.1577 -0.9064 -0.3918
vn 0.0000 -0.3652 -0.9309
vn 0.3520 -0.3645 -0.8621
vn 0.8621 -0.3645 -0.3520
vn 0.6589 -0.3630 -0.6589
vn 0.9309 -0.3652 0.0000
vn 0.8621 -0.3645 0.3520
vn 0.3520 -0.3645 0.8621
vn 0.6589 -0.3630 0.6589
vn 0.0000 -0.3652 0.9309
vn -0.3520 -0.3645 0.8621
vn -0.8621 -0.3645 0.3520
vn -0.6589 -0.3630 0.6589
vn -0.9309 -0.3652 0.0000
vn -0.8621 -0.3645 -0.3520
vn -0.3520 -0.3645 -0.8621
vn -0.6589 -0.3630 -0.6589
vn 0.8422 0.5392 0.0000
vn 0.7488 0.5822 -0.3167
vn 0.8213 0.5705 0.0000
vn -0.5924 0.5460 -0.5924
vn -0.3167 0.5822 -0.7488
vn -0.3203 0.5299 -0.7852
vn -0.5924 0.5460 0.5924
vn -0.7488 0.5822 0.3167
vn -0.7852 0.5299 0.3203
vn 0.5924 0.5460 0.5924
vn 0.3167 0.5822 0.7488
vn 0.3203 0.5299 0.7852
vn 0.5924 0.5460 -0.5924
vn 0.7852 0.5299 -0.3203
vn -0.7488 0.5822 -0.3167
vn -0.5787 0.5745 -0.5787
vn -0.3167 0.5822 0.7488
vn -0.5787 0.5745 0.5787
vn 0.7488 0.5822 0.3167
vn 0.5787 0.5745 0.5787
vn 0.3167 0.5822 -0.7488
vn 0.5787 0.5745 -0.5787
vn -0.8422 0.5392 0.0000
vn -0.7852 0.5299 -0.3203
vn 0.0000 0.5392 0.8422
vn -0.3203 0.5299 0.7852
vn 0.7852 0.5299 0.3203
vn 0.0000 0.0000 -1.0000
vn 0.0000 0.1991 -0.9800
vn -0.8213 0.5705 0.0000
vn 0.0000 0.5392 -0.8422
vn 0.0000 0.5705 -0.8213
vn 0.0000 0.5705 0.8213
vn 0.3683 0.1755 -0.9130
vn 0.3203 0.5299 -0.7852
vn 0.6948 0.1853 -0.6948
vn 0.9130 0.1755 -0.3683
vn 0.9819 0.1894 0.0000
vn 0.9130 0.1755 0.3683
vn 0.6948 0.1853 0.6948
vn 0.3683 0.1755 0.9130
vn 0.0000 0.1894 0.9819
vn -0.3683 0.1755 0.9130
vn -0.6948 0.1853 0.6948
vn -0.9130 0.1755 0.3683
vn -0.9819 0.1894 0.0000
vn -0.9130 0.1755 -0.3683
vn -0.6948 0.1853 -0.6948
vn -0.3683 0.1755 -0.9130
vn 0.0000 0.1894 -0.9819
vn -0.7475 -0.6642 0.0000
vn -0.6877 -0.6666 -0.2875
vn 0.2875 -0.6666 -0.6877
vn 0.5278 -0.6655 -0.5278
vn 0.6877 -0.6666 0.2875
vn 0.5278 -0.6655 0.5278
vn -0.2875 -0.6666 0.6877
vn -0.5278 -0.6655 0.5278
vn -0.5278 -0.6655 -0.5278
vn 0.6877 -0.6666 -0.2875
vn 0.2875 -0.6666 0.6877
vn -0.6877 -0.6666 0.2875
vn -0.2875 -0.6666 -0.6877
vn 0.7475 -0.6642 0.0000
vn 0.0000 -0.6642 0.7475
vn 0.0000 -0.6642 -0.7475
vn 0.6877 0.6666 0.2875
vn -0.6877 0.6666 -0.2875
vn 0.5278 0.6655 0.5278
vn -0.5278 0.6655 -0.5278
vn 0.2875 0.6666 0.6877
vn 0.2875 0.6666 -0.6877
vn -0.2875 0.6666 -0.6877
vn 0.0000 0.6642 0.7475
vn -0.2875 0.6666 0.6877
vn 0.5278 0.6655 -0.5278
vn -0.5278 0.6655 0.5278
vn 0.6877 0.6666 -0.2875
vn -0.6877 0.6666 0.2875
vn 0.7475 0.6642 0.0000
vn -0.7475 0.6642 0.0000
vn 0.0000 1.0000 0.0000
vn 0.0000 0.6642 -0.7475
s 1
f 86/1/1 37/2/2 88/3/3
f 88/3/3 38/4/4 90/5/5
f 88/3/3 37/2/2 38/4/4
f 1/6/6 7/7/7 9/8/8
f 90/5/5 39/9/9 92/10/10
f 90/5/5 38/4/4 39/9/9
f 1/6/6 9/8/8 11/11/11
f 92/10/10 40/12/12 94/13/13
f 92/10/10 39/9/9 40/12/12
f 1/6/6 11/11/11 13/14/14
f 94/13/13 41/15/15 96/16/16
f 94/13/13 40/12/12 41/15/15
f 1/6/6 13/14/14 15/17/17
f 96/16/16 42/18/18 98/19/19
f 96/16/16 41/15/15 42/18/18
f 1/6/6 15/17/17 17/20/20
f 98/19/19 43/21/21 100/22/22
f 98/19/19 42/18/18 43/21/21
f 1/6/6 17/20/20 19/23/23
f 100/22/22 44/24/24 102/25/25
f 100/22/22 43/21/21 44/24/24
f 1/6/6 19/23/23 21/26/26
f 102/25/25 45/27/27 104/28/28
f 102/25/25 44/24/24 45/27/27
f 1/6/6 21/26/26 23/29/29
f 104/28/28 46/30/30 106/31/31
f 104/28/28 45/27/27 46/30/30
f 1/6/6 23/29/29 25/32/32
f 106/33/31 47/34/33 108/35/34
f 106/33/31 46/36/30 47/34/33
f 1/6/6 25/32/32 27/37/35
f 110/38/36 48/39/37 49/40/38
f 110/38/36 49/40/38 112/41/39
f 1/6/6 27/37/35 29/42/40
f 108/35/34 48/39/37 110/38/36
f 108/35/34 47/34/33 48/39/37
f 1/6/6 29/42/40 31/43/41
f 84/44/42 35/45/43 36/46/44
f 1/6/6 31/43/41 33/47/45
f 84/44/42 36/46/44 86/1/1
f 1/6/6 2/48/46 5/49/47
f 3/50/48 4/51/49 5/52/47
f 1/6/6 5/49/47 7/7/7
f 3/50/48 5/52/47 2/53/46
f 4/51/49 7/54/7 5/52/47
f 8/55/50 7/54/7 6/56/51
f 10/57/52 9/58/8 8/55/50
f 10/57/52 13/59/14 11/60/11
f 12/61/53 15/62/17 13/59/14
f 16/63/54 15/62/17 14/64/55
f 18/65/56 17/66/20 16/63/54
f 18/65/56 21/67/26 19/68/23
f 20/69/57 23/70/29 21/67/26
f 24/71/58 23/70/29 22/72/59
f 26/73/60 25/74/32 24/71/58
f 26/75/60 29/76/40 27/77/35
f 28/78/61 31/79/41 29/76/40
f 32/80/62 31/79/41 30/81/63
f 3/50/48 33/82/45 32/80/62
f 1/6/6 33/47/45 2/48/46
f 58/83/64 89/84/65 91/85/66
f 78/86/67 113/87/68 80/88/69
f 70/89/70 105/90/71 72/91/72
f 62/92/73 97/93/74 64/94/75
f 54/95/76 89/84/65 56/96/77
f 78/86/67 109/97/78 111/98/79
f 70/89/70 101/99/80 103/100/81
f 62/92/73 93/101/82 95/102/83
f 54/95/76 85/103/84 87/104/85
f 74/105/86 109/97/78 76/106/87
f 66/107/88 101/99/80 68/108/89
f 58/83/64 93/101/82 60/109/90
f 112/41/39 34/110/91 83/111/92
f 74/112/86 105/90/71 107/113/93
f 51/114/94 113/87/68 82/115/95
f 66/107/88 97/93/74 99/116/96
f 53/117/97 51/114/94 52/118/98
f 55/119/99 52/118/98 54/95/76
f 55/119/99 56/96/77 57/120/100
f 57/120/100 58/83/64 59/121/101
f 61/122/102 58/83/64 60/109/90
f 63/123/103 60/109/90 62/92/73
f 63/123/103 64/94/75 65/124/104
f 65/124/104 66/107/88 67/125/105
f 69/126/106 66/107/88 68/108/89
f 71/127/107 68/108/89 70/89/70
f 71/127/107 72/91/72 73/128/108
f 73/128/108 74/112/86 75/129/109
f 77/130/110 74/105/86 76/106/87
f 79/131/111 76/106/87 78/86/67
f 79/131/111 80/88/69 81/132/112
f 81/132/112 51/114/94 50/133/113
f 83/111/92 35/45/43 84/44/42
f 82/115/95 84/44/42 85/103/84
f 87/104/85 84/44/42 86/1/1
f 87/104/85 88/3/3 89/84/65
f 91/85/66 88/3/3 90/5/5
f 91/85/66 92/10/10 93/101/82
f 95/102/83 92/10/10 94/13/13
f 95/102/83 96/16/16 97/93/74
f 99/116/96 96/16/16 98/19/19
f 99/116/96 100/22/22 101/99/80
f 103/100/81 100/22/22 102/25/25
f 103/100/81 104/28/28 105/90/71
f 107/113/93 104/28/28 106/31/31
f 107/134/93 108/35/34 109/97/78
f 111/98/79 108/35/34 110/38/36
f 111/98/79 112/41/39 113/87/68
f 82/115/95 112/41/39 83/111/92
f 51/114/94 85/103/84 52/118/98
f 59/121/101 12/61/53 10/57/52
f 78/86/67 111/98/79 113/87/68
f 20/69/57 67/125/105 69/126/106
f 58/83/64 56/96/77 89/84/65
f 28/78/61 75/135/109 77/130/110
f 3/50/48 2/53/46 33/82/45
f 53/117/97 6/56/51 4/51/49
f 32/80/62 33/82/45 31/79/41
f 61/122/102 14/64/55 12/61/53
f 28/78/61 30/81/63 31/79/41
f 22/72/59 69/126/106 71/127/107
f 26/75/60 28/78/61 29/76/40
f 30/81/63 77/130/110 79/131/111
f 26/73/60 27/136/35 25/74/32
f 55/119/99 8/55/50 6/56/51
f 24/71/58 25/74/32 23/70/29
f 65/124/104 14/64/55 63/123/103
f 20/69/57 22/72/59 23/70/29
f 73/128/108 22/72/59 71/127/107
f 18/65/56 20/69/57 21/67/26
f 81/132/112 30/81/63 79/131/111
f 18/65/56 19/68/23 17/66/20
f 59/121/101 8/55/50 57/120/100
f 16/63/54 17/66/20 15/62/17
f 67/125/105 16/63/54 65/124/104
f 12/61/53 14/64/55 15/62/17
f 53/117/97 3/50/48 50/133/113
f 10/57/52 12/61/53 13/59/14
f 10/57/52 11/60/11 9/58/8
f 86/1/1 36/46/44 37/2/2
f 8/55/50 9/58/8 7/54/7
f 114/137/6 127/138/114 128/139/115
f 114/137/6 116/140/116 117/141/117
f 114/137/6 120/142/118 121/143/119
f 114/137/6 124/144/120 125/145/121
f 114/137/6 128/139/115 129/146/122
f 114/137/6 117/141/117 118/147/123
f 114/137/6 121/143/119 122/148/124
f 114/137/6 125/145/121 126/149/125
f 114/137/6 129/146/122 130/150/126
f 114/137/6 118/147/123 119/151/127
f 114/137/6 122/148/124 123/152/128
f 114/137/6 130/150/126 115/153/129
f 114/137/6 126/149/125 127/138/114
f 114/137/6 115/153/129 116/140/116
f 114/137/6 119/151/127 120/142/118
f 114/137/6 123/152/128 124/144/120
f 136/154/130 121/155/119 120/156/118
f 144/157/131 129/158/122 128/159/115
f 137/160/132 122/161/124 121/155/119
f 145/162/133 130/163/126 129/158/122
f 138/164/134 123/165/128 122/161/124
f 115/166/129 132/167/135 116/168/116
f 146/169/136 115/166/129 130/163/126
f 139/170/137 124/171/120 123/165/128
f 132/167/135 117/172/117 116/168/116
f 140/173/138 125/174/121 124/171/120
f 133/175/139 118/176/123 117/172/117
f 141/177/140 126/178/125 125/174/121
f 134/179/141 119/180/127 118/176/123
f 142/181/142 127/182/114 126/178/125
f 135/183/143 120/156/118 119/184/127
f 143/185/144 128/159/115 127/186/114
f 146/187/136 147/188/145 131/189/146
f 4/51/49 6/56/51 7/54/7
f 70/89/70 103/100/81 105/90/71
f 62/92/73 95/102/83 97/93/74
f 54/95/76 87/104/85 89/84/65
f 78/86/67 76/106/87 109/97/78
f 70/89/70 68/108/89 101/99/80
f 62/92/73 60/109/90 93/101/82
f 54/95/76 52/118/98 85/103/84
f 74/105/86 107/134/93 109/97/78
f 66/107/88 99/116/96 101/99/80
f 58/83/64 91/85/66 93/101/82
f 112/41/39 49/40/38 34/110/91
f 74/112/86 72/91/72 105/90/71
f 51/114/94 80/88/69 113/87/68
f 66/107/88 64/94/75 97/93/74
f 53/117/97 50/133/113 51/114/94
f 55/119/99 53/117/97 52/118/98
f 55/119/99 54/95/76 56/96/77
f 57/120/100 56/96/77 58/83/64
f 61/122/102 59/121/101 58/83/64
f 63/123/103 61/122/102 60/109/90
f 63/123/103 62/92/73 64/94/75
f 65/124/104 64/94/75 66/107/88
f 69/126/106 67/125/105 66/107/88
f 71/127/107 69/126/106 68/108/89
f 71/127/107 70/89/70 72/91/72
f 73/128/108 72/91/72 74/112/86
f 77/130/110 75/135/109 74/105/86
f 79/131/111 77/130/110 76/106/87
f 79/131/111 78/86/67 80/88/69
f 81/132/112 80/88/69 51/114/94
f 83/111/92 34/110/91 35/45/43
f 82/115/95 83/111/92 84/44/42
f 87/104/85 85/103/84 84/44/42
f 87/104/85 86/1/1 88/3/3
f 91/85/66 89/84/65 88/3/3
f 91/85/66 90/5/5 92/10/10
f 95/102/83 93/101/82 92/10/10
f 95/102/83 94/13/13 96/16/16
f 99/116/96 97/93/74 96/16/16
f 99/116/96 98/19/19 100/22/22
f 103/100/81 101/99/80 100/22/22
f 103/100/81 102/25/25 104/28/28
f 107/113/93 105/90/71 104/28/28
f 107/134/93 106/33/31 108/35/34
f 111/98/79 109/97/78 108/35/34
f 111/98/79 110/38/36 112/41/39
f 82/115/95 113/87/68 112/41/39
f 51/114/94 82/115/95 85/103/84
f 136/154/130 137/160/132 121/155/119
f 144/157/131 145/162/133 129/158/122
f 137/160/132 138/164/134 122/161/124
f 145/162/133 146/169/136 130/163/126
f 138/164/134 139/170/137 123/165/128
f 115/166/129 131/190/146 132/167/135
f 146/169/136 131/190/146 115/166/129
f 139/170/137 140/173/138 124/171/120
f 132/167/135 133/175/139 117/172/117
f 140/173/138 141/177/140 125/174/121
f 133/175/139 134/179/141 118/176/123
f 141/177/140 142/181/142 126/178/125
f 134/179/141 135/191/143 119/180/127
f 142/181/142 143/192/144 127/182/114
f 135/183/143 136/154/130 120/156/118
f 143/185/144 144/157/131 128/159/115
f 50/133/113 32/80/62 81/132/112
f 26/73/60 73/128/108 75/129/109
f 136/193/130 147/188/145 137/194/132
f 143/195/144 147/188/145 144/196/131
f 135/197/143 147/188/145 136/193/130
f 142/198/142 147/188/145 143/195/144
f 134/199/141 147/188/145 135/197/143
f 141/200/140 147/188/145 142/198/142
f 133/201/139 147/188/145 134/199/141
f 140/202/138 147/188/145 141/200/140
f 132/203/135 147/188/145 133/201/139
f 139/204/137 147/188/145 140/202/138
f 131/189/146 147/188/145 132/203/135
f 138/205/134 147/188/145 139/204/137
f 145/206/133 147/188/145 146/187/136
f 137/194/132 147/188/145 138/205/134
f 144/196/131 147/188/145 145/206/133
f 59/121/101 61/122/102 12/61/53
f 20/69/57 18/65/56 67/125/105
f 28/78/61 26/75/60 75/135/109
f 53/117/97 55/119/99 6/56/51
f 61/122/102 63/123/103 14/64/55
f 22/72/59 20/69/57 69/126/106
f 30/81/63 28/78/61 77/130/110
f 55/119/99 57/120/100 8/55/50
f 65/124/104 16/63/54 14/64/55
f 73/128/108 24/71/58 22/72/59
f 81/132/112 32/80/62 30/81/63
f 59/121/101 10/57/52 8/55/50
f 67/125/105 18/65/56 16/63/54
f 53/117/97 4/51/49 3/50/48
f 50/133/113 3/50/48 32/80/62
f 26/73/60 24/71/58 73/128/108
