# Blender v2.90.0 OBJ File: ''
# www.blender.org
o bottle_02
v 0.000000 0.000000 0.000000
v 0.000000 7.280001 -1.820000
v 0.696800 7.280001 -1.680900
v 1.287000 7.280001 -1.287000
v 1.680900 7.280001 -0.696800
v 1.820000 7.280001 0.000000
v 1.680900 7.280001 0.696800
v 1.287000 7.280001 1.287000
v 0.696800 7.280001 1.680900
v 0.000000 7.280001 1.820000
v -0.696800 7.280001 1.680900
v -1.287000 7.280001 1.287000
v -1.680900 7.280001 0.696800
v -1.820000 7.280001 0.000000
v -1.680900 7.280001 -0.696800
v -1.287000 7.280001 -1.287000
v -0.696800 7.280001 -1.680900
v -0.800800 6.242600 1.929200
v 2.089100 6.242600 0.001300
v 1.929200 6.242600 0.800800
v 0.001300 6.242600 -2.089100
v 0.800800 6.242600 -1.929200
v -1.930500 6.242600 0.798200
v -2.089100 6.242600 -0.001300
v 0.798200 6.242600 1.930500
v -0.001300 6.242600 2.089100
v 1.930500 6.242600 -0.798200
v -1.475500 6.242600 -1.478100
v -0.798200 6.242600 -1.930500
v -1.478100 6.242600 1.475500
v 1.475500 6.242600 1.478100
v 1.478100 6.242600 -1.475500
v -1.929200 6.242600 -0.800800
v 1.352000 7.772700 -1.349400
v 1.478100 7.594600 -1.475500
v 1.765400 7.772700 -0.729300
v 1.930500 7.594600 -0.798200
v 1.909700 7.772700 0.001300
v 2.089100 7.594600 0.001300
v 1.764100 7.772700 0.731900
v 1.929200 7.594600 0.800800
v 1.475500 7.594600 1.478100
v 1.349400 7.772700 1.352000
v 0.729300 7.772700 1.765400
v 0.798200 7.594600 1.930500
v -0.001300 7.772700 1.909700
v -0.001300 7.594600 2.089100
v -0.731900 7.772700 1.764100
v -0.800800 7.594600 1.929200
v -1.352000 7.772700 1.349400
v -1.478100 7.594600 1.475500
v -1.765400 7.772700 0.729300
v -1.930500 7.594600 0.798200
v -1.909700 7.772700 -0.001300
v -2.089100 7.594600 -0.001300
v -1.764100 7.772700 -0.731900
v -1.929200 7.594600 -0.800800
v -1.349400 7.772700 -1.352000
v -1.475500 7.594600 -1.478100
v -0.798200 7.594600 -1.930500
v -0.729300 7.772700 -1.765400
v 0.001300 7.772700 -1.909700
v 0.001300 7.594600 -2.089100
v 0.731900 7.772700 -1.764100
v 0.800800 7.594600 -1.929200
v 0.000000 7.772700 0.000000
v 0.000000 6.242600 0.000000
v 0.000000 0.000000 -1.634100
v 0.000000 0.182000 -1.820000
v 0.696800 0.182000 -1.680900
v 0.625300 0.000000 -1.510600
v 1.287000 0.182000 -1.287000
v 1.155700 0.000000 -1.155700
v 1.680900 0.182000 -0.696800
v 1.510600 0.000000 -0.625300
v 1.820000 0.182000 0.000000
v 1.634100 0.000000 0.000000
v 1.680900 0.182000 0.696800
v 1.510600 0.000000 0.625300
v 1.287000 0.182000 1.287000
v 1.155700 0.000000 1.155700
v 0.696800 0.182000 1.680900
v 0.625300 0.000000 1.510600
v 0.000000 0.182000 1.820000
v 0.000000 0.000000 1.634100
v -0.696800 0.182000 1.680900
v -0.625300 0.000000 1.510600
v -1.287000 0.182000 1.287000
v -1.155700 0.000000 1.155700
v -1.680900 0.182000 0.696800
v -1.510600 0.000000 0.625300
v -1.820000 0.182000 0.000000
v -1.634100 0.000000 0.000000
v -1.680900 0.182000 -0.696800
v -1.510600 0.000000 -0.625300
v -1.287000 0.182000 -1.287000
v -1.155700 0.000000 -1.155700
v -0.696800 0.182000 -1.680900
v -0.625300 0.000000 -1.510600
vt 0.673818 0.006255
vt 0.727913 0.546632
vt 0.673819 0.546632
vt 0.619798 0.006255
vt 0.619798 0.546632
vt 0.565778 0.006255
vt 0.565778 0.546632
vt 0.511683 0.006255
vt 0.511683 0.546632
vt 0.457588 0.006255
vt 0.457588 0.546632
vt 0.403568 0.006255
vt 0.403568 0.546632
vt 0.349548 0.006255
vt 0.349547 0.546632
vt 0.295453 0.006255
vt 0.295453 0.546632
vt 0.241358 0.006255
vt 0.241358 0.546632
vt 0.187338 0.006255
vt 0.187337 0.546632
vt 0.133317 0.006255
vt 0.133317 0.546632
vt 0.079223 0.006255
vt 0.944144 0.546632
vt 0.890049 0.006255
vt 0.944143 0.006255
vt 0.890049 0.546632
vt 0.836028 0.006255
vt 0.224370 0.689948
vt 0.161969 0.782686
vt 0.130897 0.751749
vt 0.836028 0.546632
vt 0.782008 0.006255
vt 0.862702 0.870465
vt 0.802811 0.961210
vt 0.804912 0.868463
vt 0.747322 0.960419
vt 0.747168 0.867985
vt 0.857624 0.981016
vt 0.913818 0.966829
vt 0.912455 0.984586
vt 0.858442 0.963325
vt 0.802287 0.979513
vt 0.920518 0.873923
vt 0.692519 0.961078
vt 0.689701 0.868946
vt 0.366052 0.635015
vt 0.397399 0.594257
vt 0.484174 0.693444
vt 0.693108 0.978796
vt 0.747155 0.978015
vt 0.978381 0.878774
vt 0.359331 0.735603
vt 0.352714 0.684633
vt 0.078613 0.988824
vt 0.021625 0.977232
vt 0.077149 0.970854
vt 0.069782 0.879026
vt 0.012856 0.884131
vt 0.126987 0.875177
vt 0.184337 0.872757
vt 0.132184 0.967176
vt 0.133169 0.984705
vt 0.187155 0.964890
vt 0.187745 0.982607
vt 0.241959 0.964230
vt 0.241792 0.981826
vt 0.241804 0.871797
vt 0.296924 0.983325
vt 0.297447 0.965021
vt 0.299548 0.872274
vt 0.352261 0.984828
vt 0.353078 0.967137
vt 0.357339 0.874277
vt 0.408454 0.970641
vt 0.407091 0.988397
vt 0.415154 0.877735
vt 0.464227 0.976957
vt 0.460637 0.994715
vt 0.473017 0.882585
vt 0.583976 0.985012
vt 0.526989 0.973420
vt 0.582513 0.967042
vt 0.575146 0.875215
vt 0.518220 0.880320
vt 0.638533 0.980894
vt 0.637548 0.963365
vt 0.632351 0.871365
vt 0.570950 0.792632
vt 0.526333 0.818287
vt 0.602297 0.751874
vt 0.615635 0.702255
vt 0.542604 0.575322
vt 0.492986 0.561984
vt 0.425745 0.811567
vt 0.384987 0.780220
vt 0.475363 0.824905
vt 0.583362 0.606669
vt 0.651530 0.800909
vt 0.623379 0.752208
vt 0.759805 0.705774
vt 0.609017 0.651286
vt 0.442016 0.568601
vt 0.750479 0.849564
vt 0.696179 0.835096
vt 0.769131 0.561984
vt 0.713371 0.569348
vt 0.903594 0.715100
vt 0.896231 0.659340
vt 0.806239 0.842200
vt 0.616015 0.696448
vt 0.823430 0.576452
vt 0.889127 0.769399
vt 0.664670 0.597499
vt 0.630483 0.642148
vt 0.868080 0.610639
vt 0.854940 0.814049
vt 0.969591 0.973146
vt 0.966001 0.990904
vt 0.782008 0.546632
vt 0.727913 0.006255
vt 0.245913 0.800118
vt 0.202331 0.799815
vt 0.286170 0.783421
vt 0.317107 0.752349
vt 0.334237 0.711987
vt 0.334540 0.668405
vt 0.317842 0.628148
vt 0.286771 0.597211
vt 0.246408 0.580081
vt 0.202827 0.579778
vt 0.162569 0.596475
vt 0.131632 0.627547
vt 0.114503 0.667910
vt 0.114200 0.711491
vt 0.151434 0.798341
vt 0.115427 0.761749
vt 0.096405 0.664474
vt 0.096405 0.714971
vt 0.115977 0.617013
vt 0.152569 0.581006
vt 0.249844 0.561984
vt 0.199347 0.561984
vt 0.297305 0.581555
vt 0.333312 0.618148
vt 0.352334 0.715423
vt 0.352334 0.664926
vt 0.332763 0.762883
vt 0.296170 0.798891
vt 0.198895 0.817913
vt 0.249392 0.817912
vt 0.079222 0.546632
vt 0.025146 0.994715
vt 0.530510 0.990904
vn 0.3558 -0.3701 -0.8581
vn 0.0000 0.0000 -1.0000
vn 0.3827 0.0000 -0.9238
vn 0.6566 -0.3710 -0.6566
vn 0.7071 0.0000 -0.7071
vn 0.8581 -0.3701 -0.3558
vn 0.9238 0.0000 -0.3827
vn 0.9286 -0.3709 0.0000
vn 1.0000 0.0000 0.0000
vn 0.8581 -0.3701 0.3558
vn 0.9238 0.0000 0.3827
vn 0.6566 -0.3710 0.6566
vn 0.7071 0.0000 0.7071
vn 0.3558 -0.3701 0.8581
vn 0.3827 0.0000 0.9238
vn 0.0000 -0.3709 0.9286
vn 0.0000 0.0000 1.0000
vn -0.3558 -0.3701 0.8581
vn -0.3827 0.0000 0.9238
vn -0.6566 -0.3710 0.6566
vn -0.7071 0.0000 0.7071
vn -0.8581 -0.3701 0.3558
vn -0.9238 0.0000 0.3827
vn -0.9286 -0.3709 0.0000
vn -1.0000 0.0000 0.0000
vn -0.8581 -0.3701 -0.3558
vn -0.9238 0.0000 -0.3827
vn -0.6566 -0.3710 -0.6566
vn 0.0000 -1.0000 0.0000
vn 0.0000 -0.9091 -0.4165
vn 0.1601 -0.9083 -0.3865
vn -0.7071 0.0000 -0.7071
vn -0.3558 -0.3701 -0.8581
vn 0.5272 -0.6658 0.5279
vn 0.3555 0.3677 0.8593
vn 0.2853 -0.6657 0.6895
vn -0.0007 0.3682 0.9297
vn -0.0006 -0.6656 0.7462
vn 0.2979 0.9068 0.2983
vn 0.8588 0.3677 0.3568
vn 0.3887 0.9071 0.1612
vn 0.6573 0.3671 0.6581
vn 0.1606 0.9071 0.3890
vn 0.6891 -0.6657 0.2863
vn -0.3568 0.3677 0.8588
vn -0.2863 -0.6657 0.6891
vn 0.3890 0.9071 -0.1606
vn 0.2983 0.9068 -0.2979
vn 0.0000 1.0000 0.0000
vn -0.1612 0.9071 0.3887
vn -0.0004 0.9075 0.4201
vn 0.7462 -0.6656 0.0006
vn 0.4201 0.9075 0.0004
vn 0.9297 0.3682 0.0007
vn 0.8593 0.3677 -0.3555
vn 0.6895 -0.6657 -0.2853
vn 0.5279 -0.6658 -0.5272
vn 0.2863 -0.6657 -0.6891
vn 0.6581 0.3671 -0.6573
vn 0.3568 0.3677 -0.8588
vn 0.1612 0.9071 -0.3887
vn 0.0007 0.3682 -0.9297
vn 0.0004 0.9075 -0.4201
vn 0.0006 -0.6656 -0.7462
vn -0.1606 0.9071 -0.3890
vn -0.3555 0.3677 -0.8593
vn -0.2853 -0.6657 -0.6895
vn -0.2979 0.9068 -0.2983
vn -0.6573 0.3671 -0.6581
vn -0.5272 -0.6658 -0.5279
vn -0.8588 0.3677 -0.3568
vn -0.3887 0.9071 -0.1612
vn -0.6891 -0.6657 -0.2863
vn -0.9297 0.3682 -0.0007
vn -0.4201 0.9075 -0.0004
vn -0.7462 -0.6656 -0.0006
vn -0.3890 0.9071 0.1606
vn -0.8593 0.3677 0.3555
vn -0.6895 -0.6657 0.2853
vn -0.2983 0.9068 0.2979
vn -0.6581 0.3671 0.6573
vn -0.5279 -0.6658 0.5272
vn -0.3827 0.0000 -0.9238
vn 0.0000 -0.3709 -0.9286
vn -0.2950 -0.9088 -0.2950
vn -0.1601 -0.9083 -0.3865
vn -0.3865 -0.9083 -0.1601
vn -0.4165 -0.9091 0.0000
vn -0.3865 -0.9083 0.1601
vn -0.2950 -0.9088 0.2950
vn -0.1601 -0.9083 0.3865
vn 0.0000 -0.9091 0.4165
vn 0.1601 -0.9083 0.3865
vn 0.2950 -0.9088 0.2950
vn 0.3865 -0.9083 0.1601
vn 0.4165 -0.9091 0.0000
vn 0.3865 -0.9083 -0.1601
vn 0.2950 -0.9088 -0.2950
s 1
f 70/1/1 2/2/2 3/3/3
f 3/3/3 72/4/4 70/1/1
f 4/5/5 74/6/6 72/4/4
f 5/7/7 76/8/8 74/6/6
f 6/9/9 78/10/10 76/8/8
f 7/11/11 80/12/12 78/10/10
f 8/13/13 82/14/14 80/12/12
f 9/15/15 84/16/16 82/14/14
f 10/17/17 86/18/18 84/16/16
f 11/19/19 88/20/20 86/18/18
f 12/21/21 90/22/22 88/20/20
f 13/23/23 92/24/24 90/22/22
f 14/25/25 94/26/26 92/27/24
f 15/28/27 96/29/28 94/26/26
f 1/30/29 68/31/30 71/32/31
f 16/33/32 98/34/33 96/29/28
f 31/35/34 45/36/35 25/37/36
f 25/37/36 47/38/37 26/39/38
f 43/40/39 41/41/40 40/42/41
f 43/40/39 45/36/35 42/43/42
f 44/44/43 47/38/37 45/36/35
f 20/45/44 42/43/42 31/35/34
f 26/39/38 49/46/45 18/47/46
f 36/48/47 34/49/48 66/50/49
f 48/51/50 47/38/37 46/52/51
f 19/53/52 41/41/40 20/45/44
f 40/54/41 38/55/53 66/50/49
f 36/56/47 39/57/54 37/58/55
f 27/59/56 39/57/54 19/60/52
f 32/61/57 37/58/55 27/59/56
f 22/62/58 35/63/59 32/61/57
f 34/64/48 65/65/60 64/66/61
f 64/66/61 63/67/62 62/68/63
f 21/69/64 65/65/60 22/62/58
f 61/70/65 63/67/62 60/71/66
f 29/72/67 63/67/62 21/69/64
f 58/73/68 60/71/66 59/74/69
f 28/75/70 60/71/66 29/72/67
f 58/73/68 57/76/71 56/77/72
f 33/78/73 59/74/69 28/75/70
f 56/77/72 55/79/74 54/80/75
f 24/81/76 57/76/71 33/78/73
f 52/82/77 55/83/74 53/84/78
f 23/85/79 55/83/74 24/86/76
f 50/87/80 53/84/78 51/88/81
f 30/89/82 53/84/78 23/85/79
f 50/87/80 49/46/45 48/51/50
f 18/47/46 51/88/81 30/89/82
f 38/55/53 36/48/47 66/50/49
f 50/90/80 48/91/50 66/50/49
f 52/92/77 66/50/49 54/93/75
f 61/94/65 66/50/49 62/95/63
f 44/96/43 43/97/39 66/50/49
f 46/98/51 44/96/43 66/50/49
f 61/94/65 58/99/68 66/50/49
f 19/100/52 20/101/44 67/102/29
f 56/103/72 54/93/75 66/50/49
f 64/104/61 62/95/63 66/50/49
f 52/92/77 50/90/80 66/50/49
f 48/91/50 46/98/51 66/50/49
f 43/97/39 40/54/41 66/50/49
f 58/99/68 56/103/72 66/50/49
f 34/49/48 64/104/61 66/50/49
f 32/105/57 27/106/56 67/102/29
f 34/64/48 37/58/55 35/63/59
f 30/107/82 67/102/29 18/108/46
f 28/109/70 67/102/29 33/110/73
f 32/105/57 67/102/29 22/111/58
f 31/112/34 67/102/29 20/101/44
f 30/107/82 23/113/79 67/102/29
f 27/106/56 19/100/52 67/102/29
f 28/109/70 29/114/67 67/102/29
f 26/115/38 67/102/29 25/116/36
f 23/113/79 24/117/76 67/102/29
f 31/112/34 25/116/36 67/102/29
f 29/114/67 21/118/64 67/102/29
f 24/117/76 33/110/73 67/102/29
f 26/115/38 18/108/46 67/102/29
f 21/118/64 22/111/58 67/102/29
f 40/42/41 39/119/54 38/120/53
f 17/121/83 69/122/84 98/34/33
f 1/30/29 97/123/85 99/124/86
f 1/30/29 95/125/87 97/123/85
f 1/30/29 93/126/88 95/125/87
f 1/30/29 91/127/89 93/126/88
f 1/30/29 89/128/90 91/127/89
f 1/30/29 87/129/91 89/128/90
f 1/30/29 85/130/92 87/129/91
f 1/30/29 83/131/93 85/130/92
f 1/30/29 81/132/94 83/131/93
f 1/30/29 79/133/95 81/132/94
f 1/30/29 77/134/96 79/133/95
f 1/30/29 75/135/97 77/134/96
f 1/30/29 73/136/98 75/135/97
f 1/30/29 71/32/31 73/136/98
f 69/137/84 71/32/31 68/31/30
f 70/138/1 73/136/98 71/32/31
f 74/139/6 73/136/98 72/140/4
f 76/141/8 75/135/97 74/139/6
f 76/141/8 79/133/95 77/134/96
f 78/142/10 81/132/94 79/133/95
f 82/143/14 81/132/94 80/144/12
f 84/145/16 83/131/93 82/143/14
f 84/145/16 87/129/91 85/130/92
f 86/146/18 89/128/90 87/129/91
f 90/147/22 89/128/90 88/148/20
f 92/149/24 91/127/89 90/147/22
f 92/149/24 95/125/87 93/126/88
f 94/150/26 97/123/85 95/125/87
f 98/151/33 97/123/85 96/152/28
f 69/137/84 99/124/86 98/151/33
f 1/30/29 99/124/86 68/31/30
f 70/1/1 69/122/84 2/2/2
f 3/3/3 4/5/5 72/4/4
f 4/5/5 5/7/7 74/6/6
f 5/7/7 6/9/9 76/8/8
f 6/9/9 7/11/11 78/10/10
f 7/11/11 8/13/13 80/12/12
f 8/13/13 9/15/15 82/14/14
f 9/15/15 10/17/17 84/16/16
f 10/17/17 11/19/19 86/18/18
f 11/19/19 12/21/21 88/20/20
f 12/21/21 13/23/23 90/22/22
f 13/23/23 14/153/25 92/24/24
f 14/25/25 15/28/27 94/26/26
f 15/28/27 16/33/32 96/29/28
f 16/33/32 17/121/83 98/34/33
f 31/35/34 42/43/42 45/36/35
f 25/37/36 45/36/35 47/38/37
f 43/40/39 42/43/42 41/41/40
f 43/40/39 44/44/43 45/36/35
f 44/44/43 46/52/51 47/38/37
f 20/45/44 41/41/40 42/43/42
f 26/39/38 47/38/37 49/46/45
f 48/51/50 49/46/45 47/38/37
f 19/53/52 39/119/54 41/41/40
f 36/56/47 38/154/53 39/57/54
f 27/59/56 37/58/55 39/57/54
f 32/61/57 35/63/59 37/58/55
f 22/62/58 65/65/60 35/63/59
f 34/64/48 35/63/59 65/65/60
f 64/66/61 65/65/60 63/67/62
f 21/69/64 63/67/62 65/65/60
f 61/70/65 62/68/63 63/67/62
f 29/72/67 60/71/66 63/67/62
f 58/73/68 61/70/65 60/71/66
f 28/75/70 59/74/69 60/71/66
f 58/73/68 59/74/69 57/76/71
f 33/78/73 57/76/71 59/74/69
f 56/77/72 57/76/71 55/79/74
f 24/81/76 55/79/74 57/76/71
f 52/82/77 54/155/75 55/83/74
f 23/85/79 53/84/78 55/83/74
f 50/87/80 52/82/77 53/84/78
f 30/89/82 51/88/81 53/84/78
f 50/87/80 51/88/81 49/46/45
f 18/47/46 49/46/45 51/88/81
f 34/64/48 36/56/47 37/58/55
f 40/42/41 41/41/40 39/119/54
f 17/121/83 2/2/2 69/122/84
f 69/137/84 70/138/1 71/32/31
f 70/138/1 72/140/4 73/136/98
f 74/139/6 75/135/97 73/136/98
f 76/141/8 77/134/96 75/135/97
f 76/141/8 78/142/10 79/133/95
f 78/142/10 80/144/12 81/132/94
f 82/143/14 83/131/93 81/132/94
f 84/145/16 85/130/92 83/131/93
f 84/145/16 86/146/18 87/129/91
f 86/146/18 88/148/20 89/128/90
f 90/147/22 91/127/89 89/128/90
f 92/149/24 93/126/88 91/127/89
f 92/149/24 94/150/26 95/125/87
f 94/150/26 96/152/28 97/123/85
f 98/151/33 99/124/86 97/123/85
f 69/137/84 68/31/30 99/124/86
