# Blender v2.90.0 OBJ File: ''
# www.blender.org
o pill_01
v 0.000000 -1.129610 -0.554328
v 0.000000 -1.454328 -0.229610
v 0.229610 -0.900000 -0.554328
v 0.212132 -1.129610 -0.512132
v 0.162358 -1.324264 -0.391969
v 0.087868 -1.454328 -0.212132
v 0.424265 -0.900000 -0.424264
v 0.391969 -1.129610 -0.391969
v 0.300000 -1.324264 -0.300000
v 0.162358 -1.454328 -0.162359
v 0.554328 -0.900000 -0.229610
v 0.512132 -1.129610 -0.212132
v 0.391969 -1.324264 -0.162359
v 0.212132 -1.454328 -0.087868
v 0.600000 -0.900000 0.000000
v 0.554328 -1.129610 0.000000
v 0.424263 -1.324264 0.000000
v 0.229610 -1.454328 0.000000
v 0.554328 -0.900000 0.229610
v 0.512132 -1.129610 0.212132
v 0.391968 -1.324264 0.162359
v 0.212132 -1.454328 0.087868
v 0.424263 -0.900000 0.424264
v 0.391968 -1.129610 0.391969
v 0.300000 -1.324264 0.300000
v 0.162358 -1.454328 0.162359
v 0.229610 -0.900000 0.554328
v 0.212132 -1.129610 0.512132
v 0.162358 -1.324264 0.391969
v 0.087868 -1.454328 0.212132
v 0.000000 -0.900000 0.600000
v 0.000000 -1.129610 0.554328
v 0.000000 -1.324264 0.424264
v 0.000000 -1.454328 0.229610
v -0.229610 -0.900000 0.554327
v -0.212132 -1.129610 0.512132
v -0.162358 -1.324264 0.391969
v -0.087868 -1.454328 0.212132
v -0.424265 -0.900000 0.424264
v -0.391969 -1.129610 0.391969
v -0.300000 -1.324264 0.300000
v -0.162358 -1.454328 0.162359
v -0.554328 -0.900000 0.229610
v -0.512132 -1.129610 0.212132
v -0.391969 -1.324264 0.162359
v -0.212132 -1.454328 0.087868
v -0.600000 -0.900000 -0.000000
v -0.554328 -1.129610 -0.000000
v -0.424263 -1.324264 -0.000000
v -0.229610 -1.454328 -0.000000
v -0.554328 -0.900000 -0.229610
v -0.512132 -1.129610 -0.212132
v -0.391968 -1.324264 -0.162359
v -0.212132 -1.454328 -0.087868
v -0.424263 -0.900000 -0.424264
v -0.391968 -1.129610 -0.391969
v -0.300000 -1.324264 -0.300000
v -0.162358 -1.454328 -0.162359
v -0.229610 -0.900000 -0.554328
v -0.212131 -1.129610 -0.512132
v -0.162358 -1.324264 -0.391969
v -0.087868 -1.454328 -0.212132
v 0.000000 -0.900000 -0.600000
v 0.000000 -1.324264 -0.424264
v 0.000000 -1.500000 0.000000
v 0.000000 1.324264 -0.424264
v 0.000000 1.129610 -0.554328
v 0.087868 1.454328 -0.212132
v 0.162358 1.324264 -0.391969
v 0.212132 1.129610 -0.512132
v 0.229610 0.900000 -0.554328
v 0.162358 1.454328 -0.162359
v 0.300000 1.324264 -0.300000
v 0.391969 1.129610 -0.391969
v 0.424265 0.900000 -0.424264
v 0.212132 1.454328 -0.087868
v 0.391969 1.324264 -0.162359
v 0.512132 1.129610 -0.212132
v 0.554328 0.900000 -0.229610
v 0.229610 1.454328 0.000000
v 0.424263 1.324264 0.000000
v 0.554328 1.129610 0.000000
v 0.600000 0.900000 0.000000
v 0.212132 1.454328 0.087868
v 0.391968 1.324264 0.162359
v 0.512132 1.129610 0.212132
v 0.554328 0.900000 0.229610
v 0.162358 1.454328 0.162359
v 0.300000 1.324264 0.300000
v 0.391968 1.129610 0.391969
v 0.424263 0.900000 0.424264
v 0.087868 1.454328 0.212132
v 0.162358 1.324264 0.391969
v 0.212132 1.129610 0.512132
v 0.229610 0.900000 0.554328
v 0.000000 1.454328 0.229610
v 0.000000 1.324264 0.424264
v 0.000000 1.129610 0.554328
v 0.000000 0.900000 0.600000
v -0.087868 1.454328 0.212132
v -0.162358 1.324264 0.391969
v -0.212132 1.129610 0.512132
v -0.229610 0.900000 0.554327
v -0.162358 1.454328 0.162359
v -0.300000 1.324264 0.300000
v -0.391969 1.129610 0.391969
v -0.424265 0.900000 0.424264
v -0.212132 1.454328 0.087868
v -0.391969 1.324264 0.162359
v -0.512132 1.129610 0.212132
v -0.554328 0.900000 0.229610
v -0.229610 1.454328 -0.000000
v -0.424263 1.324264 -0.000000
v -0.554328 1.129610 -0.000000
v -0.600000 0.900000 -0.000000
v -0.212132 1.454328 -0.087868
v -0.391968 1.324264 -0.162359
v -0.512132 1.129610 -0.212132
v -0.554328 0.900000 -0.229610
v -0.162358 1.454328 -0.162359
v -0.300000 1.324264 -0.300000
v -0.391968 1.129610 -0.391969
v -0.424263 0.900000 -0.424264
v -0.087868 1.454328 -0.212132
v -0.162358 1.324264 -0.391969
v -0.212131 1.129610 -0.512132
v -0.229610 0.900000 -0.554328
v 0.000000 1.500000 0.000000
v 0.000000 1.454328 -0.229610
v 0.000000 0.900000 -0.600000
vt 0.757305 0.215255
vt 0.790485 0.132604
vt 0.811295 0.158565
vt 0.713144 0.261158
vt 0.626619 0.261011
vt 0.674524 0.219742
vt 0.857635 0.892524
vt 0.808390 0.818824
vt 0.840342 0.805589
vt 0.725750 0.179765
vt 0.874927 0.805589
vt 0.699252 0.137944
vt 0.774310 0.102827
vt 0.584190 0.210320
vt 0.639122 0.172290
vt 0.763984 0.069865
vt 0.542601 0.152677
vt 0.607095 0.116301
vt 0.906879 0.818824
vt 0.678827 0.088201
vt 0.667981 0.028822
vt 0.760427 0.034597
vt 0.498760 0.086397
vt 0.577676 0.044018
vt 0.931334 0.843279
vt 0.944570 0.875231
vt 0.942884 0.293514
vt 0.865121 0.358948
vt 0.885853 0.287840
vt 0.897766 0.206909
vt 0.930909 0.207713
vt 0.906263 0.464058
vt 0.936604 0.380099
vt 0.944570 0.909816
vt 0.836726 0.271716
vt 0.866013 0.197140
vt 0.771925 0.388944
vt 0.806788 0.332342
vt 0.794484 0.248002
vt 0.836514 0.183278
vt 0.757018 0.300966
vt 0.931335 0.941768
vt 0.811818 0.161880
vt 0.718653 0.350198
vt 0.713625 0.264325
vt 0.906880 0.966223
vt 0.757708 0.218425
vt 0.874928 0.979458
vt 0.726363 0.182844
vt 0.791099 0.135985
vt 0.626958 0.263132
vt 0.675105 0.222440
vt 0.700165 0.140975
vt 0.775071 0.106298
vt 0.585033 0.212304
vt 0.640072 0.174819
vt 0.840343 0.979458
vt 0.764928 0.073465
vt 0.544020 0.154534
vt 0.608533 0.118803
vt 0.808391 0.966223
vt 0.680103 0.091303
vt 0.579781 0.046655
vt 0.783936 0.941768
vt 0.669669 0.032158
vt 0.761571 0.038375
vt 0.770701 0.909816
vt 0.942228 0.289865
vt 0.864973 0.355371
vt 0.885372 0.284371
vt 0.897140 0.203591
vt 0.930180 0.204349
vt 0.906651 0.459677
vt 0.936268 0.376047
vt 0.836279 0.268434
vt 0.865451 0.193875
vt 0.772402 0.385756
vt 0.806557 0.329212
vt 0.770701 0.875232
vt 0.793962 0.244822
vt 0.835994 0.180015
vt 0.719494 0.347616
vt 0.756699 0.297403
vt 0.783936 0.843280
vt 0.671380 0.306500
vt 0.278175 0.737714
vt 0.197460 0.755594
vt 0.233967 0.701723
vt 0.808390 0.644498
vt 0.857635 0.718197
vt 0.783936 0.668953
vt 0.272186 0.651738
vt 0.320683 0.692861
vt 0.181217 0.843061
vt 0.234833 0.784938
vt 0.218364 0.613438
vt 0.126911 0.806168
vt 0.154433 0.732433
vt 0.184045 0.670586
vt 0.770701 0.700905
vt 0.156311 0.576725
vt 0.094908 0.799097
vt 0.105154 0.716752
vt 0.125058 0.644739
vt 0.770701 0.735490
vt 0.052617 0.624321
vt 0.783936 0.767442
vt 0.082317 0.539377
vt 0.047404 0.712005
vt 0.320446 0.971509
vt 0.380773 0.883084
vt 0.410573 0.952562
vt 0.808391 0.791897
vt 0.487879 0.911551
vt 0.444800 0.846123
vt 0.224474 0.929619
vt 0.308707 0.910816
vt 0.403348 0.788492
vt 0.288202 0.860969
vt 0.348325 0.826771
vt 0.840343 0.805132
vt 0.211889 0.896814
vt 0.261554 0.818825
vt 0.313339 0.778714
vt 0.874928 0.805132
vt 0.360934 0.737249
vt 0.274066 0.736614
vt 0.906880 0.791897
vt 0.316640 0.691750
vt 0.195645 0.866539
vt 0.229785 0.782846
vt 0.931335 0.767442
vt 0.268810 0.650263
vt 0.174683 0.840218
vt 0.192808 0.752901
vt 0.230094 0.699741
vt 0.215635 0.611338
vt 0.121242 0.802156
vt 0.150156 0.729072
vt 0.180641 0.667869
vt 0.944570 0.735489
vt 0.101244 0.712612
vt 0.122195 0.641215
vt 0.944570 0.700905
vt 0.154262 0.573906
vt 0.089502 0.794474
vt 0.050396 0.619834
vt 0.931334 0.668953
vt 0.081067 0.535767
vt 0.043828 0.706916
vt 0.493759 0.909831
vt 0.386767 0.882617
vt 0.450115 0.845150
vt 0.327936 0.971681
vt 0.230234 0.931148
vt 0.315488 0.910928
vt 0.417346 0.951483
vt 0.906879 0.644498
vt 0.408208 0.788284
vt 0.294378 0.861555
vt 0.353702 0.826926
vt 0.874927 0.631263
vt 0.267204 0.820150
vt 0.317796 0.778993
vt 0.840342 0.631263
vt 0.365563 0.737957
vt 0.219373 0.898216
vt 0.671061 0.308782
vt 0.833202 0.426157
vt 0.833672 0.422449
vt 0.500904 0.088133
vt 0.155787 0.821914
vt 0.061228 0.798923
vt 0.227774 0.965016
vt 0.149721 0.818469
vt 0.055984 0.793679
vt 0.234222 0.966837
vt 0.202666 0.868689
vn 0.0000 -0.6952 -0.7188
vn 0.1542 -0.9152 -0.3724
vn 0.0000 -0.9152 -0.4031
vn 0.0000 -0.3743 -0.9273
vn 0.3809 -0.0968 -0.9195
vn 0.3548 -0.3743 -0.8567
vn 0.0000 -1.0000 0.0000
vn 0.2751 -0.6952 -0.6641
vn 0.2850 -0.9152 -0.2850
vn 0.5083 -0.6952 -0.5083
vn 0.7038 -0.0968 -0.7038
vn 0.6557 -0.3743 -0.6557
vn 0.3724 -0.9152 -0.1542
vn 0.9195 -0.0968 -0.3809
vn 0.8567 -0.3743 -0.3548
vn 0.6641 -0.6952 -0.2751
vn 0.7188 -0.6952 0.0000
vn 0.4031 -0.9152 0.0000
vn 0.9953 -0.0968 0.0000
vn 0.9273 -0.3743 0.0000
vn 0.3724 -0.9152 0.1542
vn 0.8567 -0.3743 0.3548
vn 0.6641 -0.6952 0.2751
vn 0.2850 -0.9152 0.2850
vn 0.5083 -0.6952 0.5083
vn 0.7038 -0.0968 0.7038
vn 0.6557 -0.3743 0.6557
vn 0.2751 -0.6952 0.6641
vn 0.1542 -0.9152 0.3724
vn 0.3548 -0.3743 0.8567
vn 0.0000 -0.9152 0.4031
vn 0.3809 -0.0968 0.9195
vn 0.0000 -0.3743 0.9273
vn 0.0000 -0.6952 0.7188
vn -0.1542 -0.9152 0.3724
vn -0.2751 -0.6952 0.6641
vn -0.3809 -0.0968 0.9195
vn -0.3548 -0.3743 0.8567
vn -0.5083 -0.6952 0.5083
vn -0.2850 -0.9152 0.2850
vn -0.7038 -0.0968 0.7038
vn -0.6557 -0.3743 0.6557
vn -0.3724 -0.9152 0.1542
vn -0.9195 -0.0968 0.3809
vn -0.8567 -0.3743 0.3548
vn -0.6641 -0.6952 0.2751
vn -0.9273 -0.3743 0.0000
vn -0.4031 -0.9152 0.0000
vn -0.7188 -0.6952 0.0000
vn -0.3724 -0.9152 -0.1542
vn -0.8567 -0.3743 -0.3548
vn -0.6641 -0.6952 -0.2751
vn -0.9953 -0.0968 0.0000
vn -0.5083 -0.6952 -0.5083
vn -0.2850 -0.9152 -0.2850
vn -0.7038 -0.0968 -0.7038
vn -0.6557 -0.3743 -0.6557
vn -0.2751 -0.6952 -0.6641
vn -0.1542 -0.9152 -0.3724
vn -0.3809 -0.0968 -0.9195
vn -0.3548 -0.3743 -0.8567
vn 0.0000 -0.0968 -0.9953
vn 0.0000 0.3743 -0.9273
vn 0.2751 0.6952 -0.6641
vn 0.3548 0.3743 -0.8567
vn 0.0000 0.9152 -0.4031
vn 0.0000 1.0000 0.0000
vn 0.1542 0.9152 -0.3724
vn 0.3809 0.0968 -0.9195
vn 0.0000 0.0968 -0.9953
vn 0.0000 0.6952 -0.7188
vn 0.7038 0.0968 -0.7038
vn 0.2850 0.9152 -0.2850
vn 0.5083 0.6952 -0.5083
vn 0.6557 0.3743 -0.6557
vn 0.9195 0.0968 -0.3809
vn 0.3724 0.9152 -0.1542
vn 0.6641 0.6952 -0.2751
vn 0.8567 0.3743 -0.3548
vn 0.9273 0.3743 0.0000
vn 0.4031 0.9152 0.0000
vn 0.9953 0.0968 0.0000
vn 0.7188 0.6952 0.0000
vn 0.8567 0.3743 0.3548
vn 0.3724 0.9152 0.1542
vn 0.9195 0.0968 0.3809
vn 0.6641 0.6952 0.2751
vn 0.7038 0.0968 0.7038
vn 0.5083 0.6952 0.5083
vn 0.6557 0.3743 0.6557
vn 0.2850 0.9152 0.2850
vn 0.2751 0.6952 0.6641
vn 0.3548 0.3743 0.8567
vn 0.1542 0.9152 0.3724
vn 0.3809 0.0968 0.9195
vn 0.0000 0.3743 0.9273
vn 0.0000 0.9152 0.4031
vn 0.0000 0.0968 0.9953
vn 0.0000 0.6952 0.7188
vn -0.1542 0.9152 0.3724
vn -0.3809 0.0968 0.9195
vn -0.2751 0.6952 0.6641
vn -0.3548 0.3743 0.8567
vn -0.7038 0.0968 0.7038
vn -0.2850 0.9152 0.2850
vn -0.5083 0.6952 0.5083
vn -0.6557 0.3743 0.6557
vn -0.6641 0.6952 0.2751
vn -0.8567 0.3743 0.3548
vn -0.3724 0.9152 0.1542
vn -0.9195 0.0968 0.3809
vn -0.9273 0.3743 0.0000
vn -0.4031 0.9152 0.0000
vn -0.9953 0.0968 0.0000
vn -0.7188 0.6952 0.0000
vn -0.8567 0.3743 -0.3548
vn -0.9195 0.0968 -0.3809
vn -0.3724 0.9152 -0.1542
vn -0.6641 0.6952 -0.2751
vn -0.7038 0.0968 -0.7038
vn -0.5083 0.6952 -0.5083
vn -0.6557 0.3743 -0.6557
vn -0.2850 0.9152 -0.2850
vn -0.2751 0.6952 -0.6641
vn -0.3548 0.3743 -0.8567
vn -0.1542 0.9152 -0.3724
vn -0.3809 0.0968 -0.9195
vn 0.0000 -0.0968 0.9953
vn 0.9195 -0.0968 0.3809
vn -0.9195 -0.0968 -0.3809
s 1
f 64/1/1 6/2/2 2/3/3
f 1/4/4 3/5/5 4/6/6
f 65/7/7 2/8/3 6/9/2
f 1/4/4 5/10/8 64/1/1
f 65/7/7 6/9/2 10/11/9
f 4/6/6 9/12/10 5/10/8
f 5/10/8 10/13/9 6/2/2
f 4/6/6 7/14/11 8/15/12
f 9/12/10 14/16/13 10/13/9
f 8/15/12 11/17/14 12/18/15
f 65/7/7 10/11/9 14/19/13
f 8/15/12 13/20/16 9/12/10
f 14/16/13 17/21/17 18/22/18
f 12/18/15 15/23/19 16/24/20
f 65/7/7 14/19/13 18/25/18
f 13/20/16 16/24/20 17/21/17
f 65/7/7 18/25/18 22/26/21
f 17/27/17 20/28/22 21/29/23
f 17/27/17 22/30/21 18/31/18
f 15/32/19 20/28/22 16/33/20
f 65/7/7 22/26/21 26/34/24
f 20/28/22 25/35/25 21/29/23
f 22/30/21 25/35/25 26/36/24
f 20/28/22 23/37/26 24/38/27
f 26/36/24 29/39/28 30/40/29
f 23/37/26 28/41/30 24/38/27
f 65/7/7 26/34/24 30/42/29
f 24/38/27 29/39/28 25/35/25
f 29/39/28 34/43/31 30/40/29
f 27/44/32 32/45/33 28/41/30
f 65/7/7 30/42/29 34/46/31
f 29/39/28 32/45/33 33/47/34
f 65/7/7 34/46/31 38/48/35
f 32/45/33 37/49/36 33/47/34
f 34/43/31 37/49/36 38/50/35
f 32/45/33 35/51/37 36/52/38
f 36/52/38 41/53/39 37/49/36
f 37/49/36 42/54/40 38/50/35
f 36/52/38 39/55/41 40/56/42
f 65/7/7 38/48/35 42/57/40
f 41/53/39 46/58/43 42/54/40
f 40/56/42 43/59/44 44/60/45
f 65/7/7 42/57/40 46/61/43
f 40/56/42 45/62/46 41/53/39
f 43/59/44 48/63/47 44/60/45
f 65/7/7 46/61/43 50/64/48
f 45/62/46 48/63/47 49/65/49
f 46/58/43 49/65/49 50/66/48
f 65/7/7 50/64/48 54/67/50
f 49/68/49 52/69/51 53/70/52
f 49/68/49 54/71/50 50/72/48
f 47/73/53 52/69/51 48/74/47
f 54/71/50 57/75/54 58/76/55
f 52/69/51 55/77/56 56/78/57
f 65/7/7 54/67/50 58/79/55
f 52/69/51 57/75/54 53/70/52
f 58/76/55 61/80/58 62/81/59
f 56/78/57 59/82/60 60/83/61
f 65/7/7 58/79/55 62/84/59
f 56/78/57 61/80/58 57/75/54
f 65/7/7 62/84/59 2/8/3
f 60/83/61 64/1/1 61/80/58
f 61/80/58 2/3/3 62/81/59
f 60/83/61 63/85/62 1/4/4
f 67/86/63 69/87/64 70/88/65
f 129/89/66 128/90/67 68/91/68
f 67/86/63 71/92/69 130/93/70
f 129/94/66 69/87/64 66/95/71
f 70/88/65 75/96/72 71/92/69
f 69/87/64 72/97/73 73/98/74
f 70/88/65 73/98/74 74/99/75
f 68/91/68 128/90/67 72/100/73
f 74/99/75 79/101/76 75/96/72
f 73/98/74 76/102/77 77/103/78
f 74/99/75 77/103/78 78/104/79
f 72/100/73 128/90/67 76/105/77
f 77/103/78 82/106/80 78/104/79
f 76/105/77 128/90/67 80/107/81
f 78/104/79 83/108/82 79/101/76
f 76/102/77 81/109/83 77/103/78
f 81/110/83 86/111/84 82/112/80
f 80/107/81 128/90/67 84/113/85
f 83/114/82 86/111/84 87/115/86
f 81/110/83 84/116/85 85/117/87
f 86/111/84 91/118/88 87/115/86
f 84/116/85 89/119/89 85/117/87
f 86/111/84 89/119/89 90/120/90
f 84/113/85 128/90/67 88/121/91
f 88/122/91 93/123/92 89/119/89
f 90/120/90 93/123/92 94/124/93
f 88/121/91 128/90/67 92/125/94
f 91/118/88 94/124/93 95/126/95
f 93/123/92 98/127/96 94/124/93
f 92/125/94 128/90/67 96/128/97
f 95/126/95 98/127/96 99/129/98
f 92/130/94 97/131/99 93/123/92
f 96/128/97 128/90/67 100/132/100
f 98/127/96 103/133/101 99/129/98
f 96/134/97 101/135/102 97/131/99
f 98/127/96 101/135/102 102/136/103
f 102/136/103 107/137/104 103/133/101
f 101/135/102 104/138/105 105/139/106
f 102/136/103 105/139/106 106/140/107
f 100/132/100 128/90/67 104/141/105
f 106/140/107 109/142/108 110/143/109
f 104/141/105 128/90/67 108/144/110
f 106/140/107 111/145/111 107/137/104
f 105/139/106 108/146/110 109/142/108
f 109/142/108 114/147/112 110/143/109
f 108/144/110 128/90/67 112/148/113
f 111/145/111 114/147/112 115/149/114
f 108/146/110 113/150/115 109/142/108
f 115/151/114 118/152/116 119/153/117
f 113/154/115 116/155/118 117/156/119
f 113/154/115 118/152/116 114/157/112
f 112/148/113 128/90/67 116/158/118
f 118/152/116 123/159/120 119/153/117
f 116/155/118 121/160/121 117/156/119
f 118/152/116 121/160/121 122/161/122
f 116/158/118 128/90/67 120/162/123
f 122/161/122 125/163/124 126/164/125
f 120/162/123 128/90/67 124/165/126
f 122/161/122 127/166/127 123/159/120
f 120/167/123 125/163/124 121/160/121
f 126/164/125 66/95/71 67/86/63
f 124/165/126 128/90/67 129/89/66
f 126/164/125 130/93/70 127/166/127
f 125/163/124 129/94/66 66/95/71
f 39/55/41 111/145/111 43/59/44
f 31/168/128 103/133/101 35/51/37
f 64/1/1 5/10/8 6/2/2
f 35/51/37 107/137/104 39/55/41
f 23/37/26 95/126/95 27/44/32
f 15/32/19 87/115/86 19/169/129
f 11/17/14 83/108/82 15/23/19
f 7/14/11 79/101/76 11/17/14
f 27/44/32 99/129/98 31/168/128
f 63/85/62 71/92/69 3/5/5
f 19/169/129 91/118/88 23/37/26
f 59/82/60 130/93/70 63/85/62
f 55/77/56 127/166/127 59/82/60
f 51/170/130 123/159/120 55/77/56
f 47/73/53 119/153/117 51/170/130
f 71/92/69 7/14/11 3/5/5
f 4/6/6 8/15/12 9/12/10
f 5/10/8 9/12/10 10/13/9
f 4/6/6 3/5/5 7/14/11
f 9/12/10 13/20/16 14/16/13
f 8/15/12 7/14/11 11/17/14
f 8/15/12 12/18/15 13/20/16
f 14/16/13 13/20/16 17/21/17
f 12/18/15 11/17/14 15/23/19
f 13/20/16 12/18/15 16/24/20
f 17/27/17 16/33/20 20/28/22
f 17/27/17 21/29/23 22/30/21
f 15/32/19 19/169/129 20/28/22
f 20/28/22 24/38/27 25/35/25
f 22/30/21 21/29/23 25/35/25
f 1/4/4 4/6/6 5/10/8
f 1/4/4 63/85/62 3/5/5
f 43/59/44 115/149/114 47/171/53
f 20/28/22 19/169/129 23/37/26
f 26/36/24 25/35/25 29/39/28
f 23/37/26 27/44/32 28/41/30
f 24/38/27 28/41/30 29/39/28
f 29/39/28 33/47/34 34/43/31
f 27/44/32 31/168/128 32/45/33
f 29/39/28 28/41/30 32/45/33
f 32/45/33 36/52/38 37/49/36
f 34/43/31 33/47/34 37/49/36
f 32/45/33 31/168/128 35/51/37
f 36/52/38 40/56/42 41/53/39
f 37/49/36 41/53/39 42/54/40
f 36/52/38 35/51/37 39/55/41
f 41/53/39 45/62/46 46/58/43
f 40/56/42 39/55/41 43/59/44
f 40/56/42 44/60/45 45/62/46
f 43/59/44 47/171/53 48/63/47
f 45/62/46 44/60/45 48/63/47
f 46/58/43 45/62/46 49/65/49
f 49/68/49 48/74/47 52/69/51
f 49/68/49 53/70/52 54/71/50
f 47/73/53 51/170/130 52/69/51
f 54/71/50 53/70/52 57/75/54
f 52/69/51 51/170/130 55/77/56
f 52/69/51 56/78/57 57/75/54
f 58/76/55 57/75/54 61/80/58
f 56/78/57 55/77/56 59/82/60
f 56/78/57 60/83/61 61/80/58
f 60/83/61 1/4/4 64/1/1
f 61/80/58 64/1/1 2/3/3
f 60/83/61 59/82/60 63/85/62
f 67/86/63 66/95/71 69/87/64
f 67/86/63 70/88/65 71/92/69
f 129/94/66 68/172/68 69/87/64
f 70/88/65 74/99/75 75/96/72
f 69/87/64 68/172/68 72/97/73
f 70/88/65 69/87/64 73/98/74
f 74/99/75 78/104/79 79/101/76
f 73/98/74 72/97/73 76/102/77
f 74/99/75 73/98/74 77/103/78
f 77/103/78 81/109/83 82/106/80
f 78/104/79 82/106/80 83/108/82
f 76/102/77 80/173/81 81/109/83
f 81/110/83 85/117/87 86/111/84
f 83/114/82 82/112/80 86/111/84
f 81/110/83 80/174/81 84/116/85
f 86/111/84 90/120/90 91/118/88
f 84/116/85 88/122/91 89/119/89
f 86/111/84 85/117/87 89/119/89
f 88/122/91 92/130/94 93/123/92
f 90/120/90 89/119/89 93/123/92
f 91/118/88 90/120/90 94/124/93
f 93/123/92 97/131/99 98/127/96
f 95/126/95 94/124/93 98/127/96
f 92/130/94 96/134/97 97/131/99
f 98/127/96 102/136/103 103/133/101
f 96/134/97 100/175/100 101/135/102
f 98/127/96 97/131/99 101/135/102
f 102/136/103 106/140/107 107/137/104
f 101/135/102 100/175/100 104/138/105
f 102/136/103 101/135/102 105/139/106
f 106/140/107 105/139/106 109/142/108
f 106/140/107 110/143/109 111/145/111
f 105/139/106 104/138/105 108/146/110
f 109/142/108 113/150/115 114/147/112
f 111/145/111 110/143/109 114/147/112
f 108/146/110 112/176/113 113/150/115
f 115/151/114 114/157/112 118/152/116
f 113/154/115 112/177/113 116/155/118
f 113/154/115 117/156/119 118/152/116
f 118/152/116 122/161/122 123/159/120
f 116/155/118 120/167/123 121/160/121
f 118/152/116 117/156/119 121/160/121
f 122/161/122 121/160/121 125/163/124
f 122/161/122 126/164/125 127/166/127
f 120/167/123 124/178/126 125/163/124
f 126/164/125 125/163/124 66/95/71
f 126/164/125 67/86/63 130/93/70
f 125/163/124 124/178/126 129/94/66
f 39/55/41 107/137/104 111/145/111
f 31/168/128 99/129/98 103/133/101
f 35/51/37 103/133/101 107/137/104
f 23/37/26 91/118/88 95/126/95
f 15/32/19 83/114/82 87/115/86
f 11/17/14 79/101/76 83/108/82
f 7/14/11 75/96/72 79/101/76
f 27/44/32 95/126/95 99/129/98
f 63/85/62 130/93/70 71/92/69
f 19/169/129 87/115/86 91/118/88
f 59/82/60 127/166/127 130/93/70
f 55/77/56 123/159/120 127/166/127
f 51/170/130 119/153/117 123/159/120
f 47/73/53 115/151/114 119/153/117
f 71/92/69 75/96/72 7/14/11
f 43/59/44 111/145/111 115/149/114
