# Blender v2.90.0 OBJ File: ''
# www.blender.org
o pill_03
v 0.636396 0.636396 0.330000
v 0.000000 0.900000 -0.330000
v -0.344415 0.831492 -0.330000
v -0.636396 0.636396 -0.330000
v -0.831491 0.344415 -0.330000
v 0.831491 -0.344415 0.330000
v -0.831491 -0.344415 -0.330000
v -0.636396 -0.636396 -0.330000
v -0.344416 -0.831492 -0.330000
v 0.000000 -0.900000 -0.330000
v 0.344415 -0.831492 -0.330000
v 0.636396 -0.636396 -0.330000
v 0.831491 -0.344415 -0.330000
v 0.636396 -0.636396 0.330000
v 0.831491 0.344415 -0.330000
v 0.636396 0.636396 -0.330000
v 0.344415 0.831492 -0.330000
v 0.344415 -0.831492 0.330000
v 0.000000 0.900000 0.330000
v -0.344415 0.831492 0.330000
v -0.636396 0.636396 0.330000
v -0.831491 0.344415 0.330000
v 0.000000 -0.900000 0.330000
v -0.831491 -0.344415 0.330000
v -0.636396 -0.636396 0.330000
v -0.344416 -0.831492 0.330000
v 0.831491 0.344415 0.330000
v 0.344415 0.831492 0.330000
v -0.886930 -0.065707 -0.210000
v -0.886930 0.065707 -0.210000
v 0.886930 0.065707 -0.210000
v 0.886930 -0.065707 -0.210000
v 0.886930 -0.065707 0.210000
v -0.886930 0.065707 0.210000
v -0.886930 -0.065707 0.210000
v 0.886930 0.065707 0.210000
v -0.886930 -0.065707 0.330000
v 0.000000 -0.065724 0.330000
v 0.000000 0.065724 0.330000
v -0.886930 0.065707 0.330000
v 0.886930 0.065707 0.330000
v 0.886930 -0.065707 0.330000
v -0.886930 0.065707 -0.330000
v 0.000000 0.065724 -0.330000
v 0.000000 -0.065724 -0.330000
v -0.886930 -0.065707 -0.330000
v 0.886930 -0.065707 -0.330000
v 0.886930 0.065707 -0.330000
vt 0.972656 0.691406
vt 0.503906 0.691406
vt 0.738281 0.660156
vt 0.562500 0.136719
vt 0.472656 0.093750
vt 0.500000 0.066406
vt 0.164062 0.550781
vt 0.246094 0.621094
vt 0.152344 0.589844
vt 0.503906 0.757812
vt 0.503906 0.726562
vt 0.738281 0.757812
vt 0.437500 0.070312
vt 0.355469 0.000000
vt 0.453125 0.031250
vt 0.332031 0.164062
vt 0.503906 0.691406
vt 0.738281 0.660156
vt 0.972656 0.691406
vt 0.269531 0.457031
vt 0.218750 0.457031
vt 0.230469 0.437500
vt 0.972656 0.726562
vt 0.738281 0.757812
vt 0.503906 0.726562
vt 0.406250 0.179688
vt 0.425781 0.230469
vt 0.390625 0.195312
vt 0.382812 0.164062
vt 0.375000 0.183594
vt 0.503906 0.757812
vt 0.972656 0.660156
vt 0.042969 0.140625
vt 0.164062 0.277344
vt 0.000000 0.250000
vt 0.476562 0.570312
vt 0.421875 0.394531
vt 0.562500 0.484375
vt 0.234375 0.003906
vt 0.226562 0.183594
vt 0.125000 0.050781
vt 0.609375 0.250000
vt 0.367188 0.621094
vt 0.378906 0.433594
vt 0.000000 0.371094
vt 0.183594 0.390625
vt 0.042969 0.480469
vt 0.277344 0.164062
vt 0.609375 0.371094
vt 0.445312 0.285156
vt 0.328125 0.457031
vt 0.164062 0.335938
vt 0.187500 0.226562
vt 0.441406 0.343750
vt 0.199219 0.441406
vt 0.132812 0.523438
vt 0.648438 0.457031
vt 0.738281 0.437500
vt 0.570312 0.507812
vt 0.515625 0.585938
vt 0.503906 0.660156
vt 0.515625 0.832031
vt 0.570312 0.910156
vt 0.738281 0.980469
vt 0.648438 0.960938
vt 0.832031 0.457031
vt 0.906250 0.507812
vt 0.960938 0.585938
vt 0.972656 0.757812
vt 0.960938 0.832031
vt 0.906250 0.910156
vt 0.832031 0.960938
vt 0.210938 0.425781
vt 0.738281 0.980469
vt 0.648438 0.960938
vt 0.960938 0.832031
vt 0.906250 0.910156
vt 0.972656 0.757812
vt 0.960938 0.585938
vt 0.972656 0.660156
vt 0.906250 0.507812
vt 0.832031 0.457031
vt 0.738281 0.437500
vt 0.648438 0.457031
vt 0.570312 0.507812
vt 0.515625 0.585938
vt 0.503906 0.660156
vt 0.515625 0.832031
vt 0.570312 0.910156
vt 0.832031 0.960938
vt 0.101562 0.550781
vt 0.972656 0.726562
vn -0.9299 0.1915 -0.3140
vn 0.9299 0.1915 -0.3140
vn 0.0000 0.7071 -0.7071
vn -0.6894 -0.2855 -0.6657
vn -0.6363 0.5222 -0.5677
vn 0.6894 -0.2855 -0.6657
vn 0.6363 0.5222 -0.5677
vn 0.6363 -0.5222 -0.5677
vn 0.9299 -0.1915 -0.3140
vn 0.0000 -0.7071 -0.7071
vn -0.9299 -0.1915 -0.3140
vn -0.6894 0.2855 -0.6657
vn -0.6363 -0.5222 -0.5677
vn -0.6894 0.2855 0.6657
vn -0.9299 0.1915 0.3140
vn 0.0000 0.7071 0.7071
vn 0.9299 0.1915 0.3140
vn 0.6894 -0.2855 0.6657
vn 0.6363 0.5222 0.5677
vn 0.9299 -0.1915 0.3140
vn 0.0000 -0.7071 0.7071
vn -0.9299 -0.1915 0.3140
vn -0.6894 -0.2855 0.6657
vn -0.6363 0.5222 0.5677
vn -0.6363 -0.5222 0.5677
vn 0.0000 0.7462 -0.6657
vn 0.2855 0.6894 0.6657
vn 0.2855 0.6894 -0.6657
vn 0.2855 -0.6894 -0.6657
vn 0.0000 -0.7462 0.6657
vn 0.0000 -0.7462 -0.6657
vn -0.5276 0.5276 -0.6657
vn -0.2855 0.6894 0.6657
vn -0.2855 0.6894 -0.6657
vn -0.5276 -0.5276 -0.6657
vn 0.5276 -0.5276 -0.6657
vn 0.2855 -0.6894 0.6657
vn 0.5276 0.5276 -0.6657
vn 0.6894 0.2855 0.6657
vn 0.6894 0.2855 -0.6657
vn -0.5276 0.5276 0.6657
vn -0.2855 -0.6894 -0.6657
vn -0.5276 -0.5276 0.6657
vn 0.5276 -0.5276 0.6657
vn 0.5276 0.5276 0.6657
vn 0.0000 0.7462 0.6657
vn -0.2855 -0.6894 0.6657
vn 0.6363 -0.5222 0.5677
s 1
f 29/1/1 32/2/2 45/3/3
f 7/4/4 29/5/1 46/6/5
f 32/7/2 13/8/6 47/9/7
f 48/10/8 31/11/9 44/12/10
f 30/13/11 5/14/12 43/15/13
f 30/13/11 22/16/14 5/14/12
f 35/17/15 38/18/16 33/19/17
f 6/20/18 33/21/17 42/22/19
f 36/23/20 39/24/21 34/25/22
f 35/26/15 24/27/23 37/28/24
f 22/16/14 34/29/22 40/30/25
f 34/25/22 39/24/21 40/31/25
f 33/19/17 38/18/16 42/32/19
f 2/33/26 28/34/27 17/35/28
f 32/7/2 6/20/18 13/8/6
f 11/36/29 23/37/30 10/38/31
f 4/39/32 20/40/33 3/41/34
f 8/42/35 24/27/23 7/4/4
f 12/43/36 18/44/37 11/36/29
f 16/45/38 27/46/39 15/47/40
f 5/14/12 21/48/41 4/39/32
f 9/49/42 25/50/43 8/42/35
f 13/8/6 14/51/44 12/43/36
f 17/35/28 1/52/45 16/45/38
f 7/4/4 35/26/15 29/5/1
f 3/41/34 19/53/46 2/33/26
f 10/38/31 26/54/47 9/49/42
f 15/47/40 36/55/20 31/56/9
f 38/18/16 26/57/47 23/58/30
f 33/19/17 34/25/22 35/17/15
f 38/18/16 25/59/43 26/57/47
f 33/19/17 36/23/20 34/25/22
f 38/18/16 24/60/23 25/59/43
f 29/5/1 34/29/22 30/13/11
f 38/18/16 37/61/24 24/60/23
f 31/56/9 33/21/17 32/7/2
f 39/24/21 22/62/14 40/31/25
f 39/24/21 21/63/41 22/62/14
f 39/24/21 19/64/46 20/65/33
f 29/1/1 31/11/9 32/2/2
f 38/18/16 23/58/30 18/66/37
f 38/18/16 18/66/37 14/67/44
f 38/18/16 14/67/44 6/68/18
f 38/18/16 6/68/18 42/32/19
f 39/24/21 41/69/48 27/70/39
f 39/24/21 27/70/39 1/71/45
f 39/24/21 1/71/45 28/72/27
f 39/24/21 28/72/27 19/64/46
f 39/24/21 20/65/33 21/63/41
f 36/55/20 27/46/39 41/73/48
f 44/12/10 2/74/26 17/75/28
f 44/12/10 5/76/12 4/77/32
f 44/12/10 43/78/13 5/76/12
f 45/3/3 7/79/4 46/80/5
f 45/3/3 8/81/35 7/79/4
f 45/3/3 9/82/42 8/81/35
f 45/3/3 10/83/31 9/82/42
f 45/3/3 11/84/29 10/83/31
f 45/3/3 12/85/36 11/84/29
f 45/3/3 13/86/6 12/85/36
f 45/3/3 47/87/7 13/86/6
f 44/12/10 15/88/40 48/10/8
f 44/12/10 16/89/38 15/88/40
f 44/12/10 17/75/28 16/89/38
f 44/12/10 3/90/34 2/74/26
f 44/12/10 4/77/32 3/90/34
f 15/47/40 31/56/9 48/91/8
f 46/80/5 29/1/1 45/3/3
f 30/92/11 43/78/13 44/12/10
f 30/13/11 34/29/22 22/16/14
f 35/17/15 37/61/24 38/18/16
f 36/23/20 41/69/48 39/24/21
f 2/33/26 19/53/46 28/34/27
f 32/7/2 33/21/17 6/20/18
f 11/36/29 18/44/37 23/37/30
f 4/39/32 21/48/41 20/40/33
f 8/42/35 25/50/43 24/27/23
f 12/43/36 14/51/44 18/44/37
f 16/45/38 1/52/45 27/46/39
f 5/14/12 22/16/14 21/48/41
f 9/49/42 26/54/47 25/50/43
f 13/8/6 6/20/18 14/51/44
f 17/35/28 28/34/27 1/52/45
f 7/4/4 24/27/23 35/26/15
f 3/41/34 20/40/33 19/53/46
f 10/38/31 23/37/30 26/54/47
f 15/47/40 27/46/39 36/55/20
f 29/5/1 35/26/15 34/29/22
f 31/56/9 36/55/20 33/21/17
f 47/87/7 45/3/3 32/2/2
f 44/12/10 31/11/9 30/92/11
f 29/1/1 30/92/11 31/11/9
