# Blender v2.90.0 OBJ File: ''
# www.blender.org
o pill_04
v 0.445477 0.445477 0.231000
v 0.000000 0.630000 -0.231000
v -0.241090 0.582044 -0.231000
v -0.445477 0.445477 -0.231000
v -0.582044 0.241091 -0.231000
v 0.582044 -0.241091 0.231000
v -0.582044 -0.241091 -0.231000
v -0.445477 -0.445477 -0.231000
v -0.241090 -0.582044 -0.231000
v 0.000000 -0.630000 -0.231000
v 0.241090 -0.582044 -0.231000
v 0.445477 -0.445477 -0.231000
v 0.582044 -0.241091 -0.231000
v 0.445477 -0.445477 0.231000
v 0.582044 0.241091 -0.231000
v 0.445477 0.445477 -0.231000
v 0.241090 0.582044 -0.231000
v 0.241090 -0.582044 0.231000
v 0.000000 0.630000 0.231000
v -0.241090 0.582044 0.231000
v -0.445477 0.445477 0.231000
v -0.582044 0.241091 0.231000
v 0.000000 -0.630000 0.231000
v -0.582044 -0.241091 0.231000
v -0.445477 -0.445477 0.231000
v -0.241090 -0.582044 0.231000
v 0.582044 0.241091 0.231000
v 0.241090 0.582044 0.231000
v -0.620851 -0.045995 -0.147000
v -0.620851 0.045995 -0.147000
v 0.620851 0.045995 -0.147000
v 0.620851 -0.045995 -0.147000
v 0.620851 -0.045995 0.147000
v -0.620851 0.045995 0.147000
v -0.620851 -0.045995 0.147000
v 0.620851 0.045995 0.147000
v -0.620851 -0.045995 0.231000
v 0.000000 -0.046007 0.231000
v 0.000000 0.046007 0.231000
v -0.620851 0.045995 0.231000
v 0.620851 0.045995 0.231000
v 0.620851 -0.045995 0.231000
v -0.620851 0.045995 -0.231000
v 0.000000 0.046007 -0.231000
v 0.000000 -0.046007 -0.231000
v -0.620851 -0.045995 -0.231000
v 0.620851 -0.045995 -0.231000
v 0.620851 0.045995 -0.231000
vt 0.964844 0.671875
vt 0.964844 0.703125
vt 0.738281 0.671875
vt 0.250591 0.000145
vt 0.177030 0.067229
vt 0.164121 0.030713
vt 0.473722 0.524433
vt 0.567987 0.474753
vt 0.505792 0.550697
vt 0.964844 0.765625
vt 0.738281 0.765625
vt 0.964844 0.734375
vt 0.142541 0.089567
vt 0.045137 0.137506
vt 0.110620 0.061915
vt 0.189293 0.224475
vt 0.964844 0.738281
vt 0.738281 0.769531
vt 0.511719 0.738281
vt 0.424229 0.391077
vt 0.405751 0.440927
vt 0.392306 0.424214
vt 0.511719 0.703125
vt 0.738281 0.671875
vt 0.964844 0.703125
vt 0.231299 0.161439
vt 0.284326 0.162609
vt 0.241885 0.180791
vt 0.209950 0.175656
vt 0.223233 0.192583
vt 0.964844 0.671875
vt 0.511719 0.769531
vt 0.049452 0.485488
vt 0.225525 0.429376
vt 0.136221 0.570615
vt 0.610618 0.243516
vt 0.429621 0.226617
vt 0.565459 0.132289
vt 0.000145 0.250934
vt 0.165922 0.334810
vt 0.001597 0.373170
vt 0.370291 0.000994
vt 0.610618 0.363369
vt 0.447802 0.279189
vt 0.248130 0.615768
vt 0.333039 0.453551
vt 0.367663 0.615110
vt 0.166873 0.277388
vt 0.480932 0.047074
vt 0.341091 0.163904
vt 0.444250 0.336834
vt 0.276927 0.452370
vt 0.186539 0.388135
vt 0.392057 0.186186
vt 0.384678 0.454840
vt 0.439915 0.547284
vt 0.828125 0.964844
vt 0.738281 0.980469
vt 0.902344 0.914062
vt 0.953125 0.839844
vt 0.964844 0.769531
vt 0.953125 0.601562
vt 0.902344 0.527344
vt 0.738281 0.457031
vt 0.828125 0.476562
vt 0.652344 0.964844
vt 0.574219 0.914062
vt 0.527344 0.839844
vt 0.511719 0.671875
vt 0.527344 0.601562
vt 0.574219 0.527344
vt 0.652344 0.476562
vt 0.374562 0.436307
vt 0.738281 0.980469
vt 0.652344 0.960938
vt 0.953125 0.835938
vt 0.902344 0.914062
vt 0.953125 0.597656
vt 0.902344 0.523438
vt 0.828125 0.472656
vt 0.738281 0.457031
vt 0.652344 0.472656
vt 0.574219 0.523438
vt 0.527344 0.597656
vt 0.511719 0.671875
vt 0.527344 0.835938
vt 0.511719 0.765625
vt 0.574219 0.914062
vt 0.828125 0.960938
vt 0.453288 0.583443
vt 0.511719 0.703125
vt 0.511719 0.734375
vn -0.6363 0.5222 -0.5677
vn -0.9299 0.1915 -0.3140
vn 0.0000 0.7071 -0.7071
vn -0.6894 -0.2855 -0.6657
vn 0.9299 0.1915 -0.3140
vn 0.6894 -0.2855 -0.6657
vn 0.6363 0.5222 -0.5677
vn -0.6363 -0.5222 -0.5677
vn 0.0000 -0.7071 -0.7071
vn -0.9299 -0.1915 -0.3140
vn -0.6894 0.2855 -0.6657
vn -0.6894 0.2855 0.6657
vn -0.9299 0.1915 0.3140
vn 0.0000 0.7071 0.7071
vn 0.9299 0.1915 0.3140
vn 0.6894 -0.2855 0.6657
vn 0.6363 0.5222 0.5677
vn 0.9299 -0.1915 0.3140
vn 0.0000 -0.7071 0.7071
vn -0.9299 -0.1915 0.3140
vn -0.6894 -0.2855 0.6657
vn -0.6363 0.5222 0.5677
vn -0.6363 -0.5222 0.5677
vn 0.0000 0.7462 -0.6657
vn 0.2855 0.6894 0.6657
vn 0.2855 0.6894 -0.6657
vn 0.2855 -0.6894 -0.6657
vn 0.0000 -0.7462 0.6657
vn 0.0000 -0.7462 -0.6657
vn -0.5276 0.5276 -0.6657
vn -0.2855 0.6894 0.6657
vn -0.2855 0.6894 -0.6657
vn -0.5276 -0.5276 -0.6657
vn 0.5276 -0.5276 -0.6657
vn 0.2855 -0.6894 0.6657
vn 0.5276 0.5276 -0.6657
vn 0.6894 0.2855 0.6657
vn 0.6894 0.2855 -0.6657
vn -0.5276 0.5276 0.6657
vn -0.2855 -0.6894 -0.6657
vn -0.5276 -0.5276 0.6657
vn 0.5276 -0.5276 0.6657
vn 0.5276 0.5276 0.6657
vn 0.0000 0.7462 0.6657
vn -0.2855 -0.6894 0.6657
vn 0.9299 -0.1915 -0.3140
vn 0.6363 -0.5222 0.5677
vn 0.6363 -0.5222 -0.5677
s 1
f 46/1/1 29/2/2 45/3/3
f 7/4/4 29/5/2 46/6/1
f 32/7/5 13/8/6 47/9/7
f 43/10/8 44/11/9 30/12/10
f 30/13/10 5/14/11 43/15/8
f 30/13/10 22/16/12 5/14/11
f 35/17/13 38/18/14 33/19/15
f 6/20/16 33/21/15 42/22/17
f 36/23/18 39/24/19 34/25/20
f 35/26/13 24/27/21 37/28/22
f 22/16/12 34/29/20 40/30/23
f 34/25/20 39/24/19 40/31/23
f 33/19/15 38/18/14 42/32/17
f 2/33/24 28/34/25 17/35/26
f 32/7/5 6/20/16 13/8/6
f 11/36/27 23/37/28 10/38/29
f 4/39/30 20/40/31 3/41/32
f 8/42/33 24/27/21 7/4/4
f 12/43/34 18/44/35 11/36/27
f 16/45/36 27/46/37 15/47/38
f 5/14/11 21/48/39 4/39/30
f 9/49/40 25/50/41 8/42/33
f 13/8/6 14/51/42 12/43/34
f 17/35/26 1/52/43 16/45/36
f 7/4/4 35/26/13 29/5/2
f 3/41/32 19/53/44 2/33/24
f 10/38/29 26/54/45 9/49/40
f 15/47/38 36/55/18 31/56/46
f 38/18/14 26/57/45 23/58/28
f 33/19/15 34/25/20 35/17/13
f 38/18/14 25/59/41 26/57/45
f 33/19/15 36/23/18 34/25/20
f 38/18/14 24/60/21 25/59/41
f 29/5/2 34/29/20 30/13/10
f 38/18/14 37/61/22 24/60/21
f 31/56/46 33/21/15 32/7/5
f 39/24/19 22/62/12 40/31/23
f 39/24/19 21/63/39 22/62/12
f 39/24/19 19/64/44 20/65/31
f 38/18/14 23/58/28 18/66/35
f 38/18/14 18/66/35 14/67/42
f 38/18/14 14/67/42 6/68/16
f 38/18/14 6/68/16 42/32/17
f 39/24/19 41/69/47 27/70/37
f 39/24/19 27/70/37 1/71/43
f 39/24/19 1/71/43 28/72/25
f 39/24/19 28/72/25 19/64/44
f 39/24/19 20/65/31 21/63/39
f 36/55/18 27/46/37 41/73/47
f 44/11/9 2/74/24 17/75/26
f 44/11/9 5/76/11 4/77/30
f 44/11/9 43/10/8 5/76/11
f 45/3/3 7/78/4 46/1/1
f 45/3/3 8/79/33 7/78/4
f 45/3/3 9/80/40 8/79/33
f 45/3/3 10/81/29 9/80/40
f 45/3/3 11/82/27 10/81/29
f 45/3/3 12/83/34 11/82/27
f 45/3/3 13/84/6 12/83/34
f 45/3/3 47/85/7 13/84/6
f 44/11/9 15/86/38 48/87/48
f 44/11/9 16/88/36 15/86/38
f 44/11/9 17/75/26 16/88/36
f 44/11/9 3/89/32 2/74/24
f 44/11/9 4/77/30 3/89/32
f 15/47/38 31/56/46 48/90/48
f 45/3/3 29/2/2 32/91/5
f 48/87/48 31/92/46 44/11/9
f 30/12/10 44/11/9 31/92/46
f 30/13/10 34/29/20 22/16/12
f 35/17/13 37/61/22 38/18/14
f 36/23/18 41/69/47 39/24/19
f 29/2/2 30/12/10 31/92/46
f 2/33/24 19/53/44 28/34/25
f 32/7/5 33/21/15 6/20/16
f 11/36/27 18/44/35 23/37/28
f 4/39/30 21/48/39 20/40/31
f 8/42/33 25/50/41 24/27/21
f 12/43/34 14/51/42 18/44/35
f 16/45/36 1/52/43 27/46/37
f 5/14/11 22/16/12 21/48/39
f 9/49/40 26/54/45 25/50/41
f 13/8/6 6/20/16 14/51/42
f 17/35/26 28/34/25 1/52/43
f 7/4/4 24/27/21 35/26/13
f 3/41/32 20/40/31 19/53/44
f 10/38/29 23/37/28 26/54/45
f 15/47/38 27/46/37 36/55/18
f 29/2/2 31/92/46 32/91/5
f 29/5/2 35/26/13 34/29/20
f 31/56/46 36/55/18 33/21/15
f 47/85/7 45/3/3 32/91/5
